<?xml version="1.0" encoding="utf-8"?>
<!-- Generator: Adobe Illustrator 16.0.0, SVG Export Plug-In . SVG Version: 6.00 Build 0)  -->
<!DOCTYPE svg PUBLIC "-//W3C//DTD SVG 1.1//EN" "http://www.w3.org/Graphics/SVG/1.1/DTD/svg11.dtd">
<svg version="1.1" id="Ebene_1" xmlns="http://www.w3.org/2000/svg" xmlns:xlink="http://www.w3.org/1999/xlink" x="0px" y="0px"
	 width="1000px" height="1000px" viewBox="0 0 1000 1000" enable-background="new 0 0 1000 1000" xml:space="preserve">
<g id="Ebene_2">
</g>
<g opacity="0.5">
	<path fill="none" stroke="#000000" stroke-width="5" stroke-linecap="round" stroke-linejoin="round" stroke-miterlimit="10" d="
		M362.034,441.834l-0.145,0.146l-0.57,0.389l-0.067,0.335l-0.048,0.614l-0.501,1.105l-0.13,0.549l-0.103,0.486l-0.052,0.263
		l-0.137,0.346l-0.909,1.413l-0.308,0.425l-0.084,0.196l-0.137,0.219l-0.064,0.1l-0.139,0.357l-0.047,0.432l0.001,0.162l0.014,0.566
		l-0.016,0.341l-0.05,0.477l0.002,0.277l-0.172,1.155l-0.093,0.089l-0.221,0.193l-0.131,0.118l-0.334,0.254l-0.144,0.294
		l0.177,0.238l0.143,1.227l0.219,0.22l0.192,0.616l0.067,1.068l-0.016,0.715l0.248,1.394l-0.035,0.567l-0.012,0.472l-0.218,0.732
		l-0.231,0.229l-0.38,0.798l-0.13,0.551l-0.115,0.153l-0.255,0.244l-0.058,0.063l-0.286,0.05l-0.172-0.083l-0.24,0.505l-0.725,0.032
		l-0.446-0.193l-0.841-0.244l-0.641-0.026l-0.807-0.027l-0.885-0.061l-0.538-0.054l-0.633-0.11l-1.311-0.744l-0.454-0.471
		l-0.179-0.228l-0.702-1.045l-0.954-0.949l-0.14-0.149l-0.335-0.221l-0.436,1.378l-0.398,1.57l-0.054,0.103l-0.187,0.834
		l-0.665,2.495l-0.205,0.755l-0.85,2.967l-0.253,0.755l-0.601,2.374l-0.143,0.855l0.238,0.276l-0.607,3.901l-0.49,2.334l-0.242,1.09
		l-2.291,5.85l-0.657,2.82l-0.011,0.518l-0.079,2.059l-0.22,6.344l-1.003,5.473l6.132-0.519l2.04-0.434l0.578-0.14l1.597-0.188
		l1.872-0.46l5.464-1.308l0.291,0.087l0.354,0.324l0.333,0.18l0.315,0.354l0.168,0.608l0.15,0.547l0.281,0.398l0.113,0.161
		l0.569,0.053l0.707,0.197l0.573,0.312l6.542,4.406l0.663,0.11l7.028,4.234l-5.241,5.754l-2.729,2.997l-0.052,0.062l-0.6,0.721
		l-0.464,0.557l-0.219,0.263l-0.039,0.047l-0.336,0.397l-0.354,0.42l-0.634,0.75l-0.587,0.694l-0.025,0.031l-0.088,0.062
		l-0.521,0.633l-0.264,0.31l-0.238,0.225l-0.023,0.023l-0.055,0.052l-0.499,0.475l-0.184,0.206l-0.143,0.16l-0.201,0.258
		l-0.042,0.053l-0.578,0.74l-0.396,0.506l-0.047,0.061l-0.476,0.61l-0.305,0.396l-0.042,0.056l-0.279,0.363l-0.63,0.799l-0.607,0.77
		l-1.01,1.293l-0.818,1.037l-0.074,0.095l-0.046,0.058l-0.648,0.827l-0.314,0.4l-0.308,0.396l-0.617,0.784l-1.281,1.634
		l-0.241,0.307l-0.387,0.491l-0.521,0.66l-0.117,0.149l-0.472,0.606l-0.157,0.202l-0.644,0.823l-0.641,0.817l-0.641,0.818
		l-0.638,0.81l-0.644,0.799l-0.029,0.038l-0.135,0.171l-0.666,0.844l-0.19,0.24l-0.286,0.285l-0.737,0.701l-0.21,0.191l-0.202,0.156
		l-1.611,0.468l-0.427,0.091l-0.829,0.2l-0.149,0.046l-0.36,0.11l-0.168,0.048l-0.36,0.121l-0.126-0.042l-0.067,0.055l-0.43,0.105
		l-0.317,0.08l-0.149,0.038l-0.537,0.154l-0.204,0.025l-0.256,0.031l-0.011,0.253l-0.06,1.527l-0.025,0.843l-0.006,0.191v0.006
		l-0.003,0.094l0.006,0.229l-0.012,0.071l-0.014,0.145l-0.025,0.075v0.002l-0.084,0.359l-0.002,0.009l-0.085,0.828l-0.718,1.833
		l-1.45,1.851l-0.238,0.305l0.116,1.353l-1.466,1.344l-0.906,2.051l0.314,1.143l0.294,1.068l-0.062,2.136l-0.585,2.139l1.023,0.883
		l0.308,0.266l0.034,0.109l0.006,0.035v0.001l0.021,0.11l0.021,0.116l0.021,0.172l0.029,0.389l0.003,0.031l0.017,0.178l0.017,0.174
		l0.017,0.175l-0.014,0.111l-0.01,0.079l-0.017,0.141l-0.002,0.011l-0.012,0.096l-0.025,0.21l-0.001,0.01l-0.006,0.048l-0.023,0.182
		l-0.006,0.047l-0.021,0.158l-0.021,0.161l-0.003,0.021l-0.01,0.088l-0.01,0.051l-0.003,0.02l-0.05,0.26l-0.028,0.214l-0.006,0.065
		l-0.065,0.403l-0.017,0.105l-0.082,1.038l-0.02,0.242l-0.012,0.039l-0.105,0.361l-0.026,0.089l-0.115,0.395l-0.212,0.545
		l-0.191,0.431l-0.483,0.859l-0.021,0.035l-0.312,0.526l-0.245,0.537l-0.173,0.437l-0.012,0.072l0.53,0.713l0.498,0.67l0.53,0.713
		l0.534,0.718l0.509,0.682l0.168,0.228l0.263,0.356l0.606,0.82l0.598,0.809l0.881,0.548l0.502,0.402l0.585,0.468l0.578,0.464
		l0.087,0.269l-0.077,0.569l-0.002,0.167l-0.003,0.189l0.055,0.148l0.165,0.454l0.304,0.832l0.113,0.221l0.194,0.189l2.033,1.993
		l0.022,1.038l-0.706,0.951l-3.438,1.962l-2.295,3.663l-1.297,0.751l0.496,3.566l-3.324,2.902l-0.771,1.162l-1.053,0.415
		l-0.588,1.488l-0.755-0.365l-1.316-0.383l-0.454-0.603l-0.338-0.162l-0.342-0.164l-0.463,0.118l-0.637,0.521l-0.219,0.933
		l-0.023,0.065l-0.23,0.631l-1.315,1.708l-5.23,2.682l1.301,6.962l-0.001,0.187l-0.016,0.75l0.062,0.592l0.344,0.748l0.946,0.364
		l0.162,0.145l0.738,0.662l2.778,1.278l0.411-0.527l-0.004-0.066l0.249-0.141l0.053-0.049l0.144-0.19l0.018,0.012l0.044-0.079
		l-0.108-0.067l0.024-0.041l-0.005-0.003l-0.005-0.004l-0.004-0.004l-0.004-0.005l-0.002-0.006l-0.002-0.006l-0.001-0.006
		l0.001-0.006l0.002-0.006l0.002-0.006l0.026-0.042l0.004-0.005l0.005-0.004l0.005-0.003l0.006-0.002l0.006-0.001l0.005-0.001
		l0.006,0.001l0.005,0.001l0.004,0.002l0.005,0.003l0.004,0.003l0.071-0.113l0.054-0.084l0.031-0.048l0.019-0.033l0.016-0.034
		l0.016-0.049l0.01-0.051l0.002-0.051l-0.004-0.051l-0.011-0.05l-0.019-0.048l-0.025-0.045l-0.032-0.04l-0.062-0.047l-0.73-0.529
		l-0.046-0.004l-0.046-0.033l-0.019-0.041l-0.022-0.017l0.012-0.015l0.015-0.002l0.019-0.025l-0.003-0.015l-0.021-0.015l0.037-0.017
		l-0.348-0.646l-0.463-0.851l0.118-0.061l0.135-0.069l0.729-0.218l0.019,0.008l0.118-0.021l0.089-0.043l0.65-0.188l0.105-0.025
		l0.418-0.104l0.062-0.011l0.253-0.064l0.18-0.013l0.202,0.04l-0.005,0.032l-0.069,0.443l-0.014,0.373l-0.002,0.033l0.057,0.311
		l0.115,0.61l0.05,0.343l0.015,0.088l0.037,0.266l-0.015,0.165l-0.018,0.182l-0.021,0.254l-0.014,0.083l-0.039,0.342l0.022,0.163
		l1.519,0.547l0.271,0.098l0.229,0.082l0.353,0.127l0.158,0.058l0.348-0.178l0.241,0.175l0.311,0.225l0.19-0.015l0.253-0.051
		l0.153-0.079l0.058-0.044l0.08-0.069l0.037-0.046l0.044-0.063l0.016-0.038l0.014-0.036l0.006-0.03l0.006-0.036l0.002-0.025
		l0.001-0.036l0.006-0.578l0.001-0.149l0.018-0.155l0.016-0.307l0.046-0.352l0.023-0.176l0.041-0.287l0.04-0.333l-0.002-0.044
		l-0.007-0.096l-0.01-0.096l-0.021-0.161l-0.024-0.228l-0.016-0.097l-0.035-0.123l-0.091-0.312l-0.013-0.095l0.025-0.037
		l0.079-0.114l0.07,0.035l0.081-0.016l0.215-0.041l0.019,0.007l0.188,0.065l0.02,0.007l0.172,0.061l0.088,0.031l0.099,0.034
		l0.03,0.011l0.187,0.064l0.17,0.059l0.021,0.008l0.172,0.059l0.123,0.043l0.196,1.037l0.044,0.232l0.027,0.147l0.033,0.172
		l0.032,0.171l0.025,0.134l0.507-0.076l0.21-0.032l0.243-0.037l0.025,0.137l0.03,0.161l0.038,0.208l0.039,0.208l0.036,0.193
		l0.03,0.161l-0.242,0.037l-0.717,0.109l0.05,0.263l0.042,0.223l0.038,0.202l0.039,0.203l-0.052,0.008l0.017,0.088l0.011,0.054
		l-1.483,0.229l-1.099-0.278l-0.116,0.277l-0.077,0.284l-0.071,0.26l-0.063-0.007l-0.016-0.002l-0.017,0.038l-0.023,0.061
		l0.114,0.012l0.02,0.002l0.153,0.016l0.145,0.024l0.359,0.062l0.024,0.004l0.091,0.016l0.372,0.063l0.276,0.047l0.366,0.27
		l0.093,0.07l-0.005,0.02l0.133,0.131l-0.101,0.133l-0.685,0.773l0.955,0.823l0.983,1.417l0.071,0.901l0.429,0.601l3.154,1.901
		l0.987,0.233l0.498,0.959l1.234,1.64l1.236,1.49l0.808,0.764l0.729,0.69l0.402,0.464l0.614,0.237l0.881,0.104l0.35-0.079
		l0.725-0.349l2.835-1.966l0.688-0.805l1.011,0.881l0.056,0.024l0.115,0.053l0.157,0.07l0.167,0.076l0.519,0.236l0.159,0.072
		l1.023,0.314l-0.012,0.057l-0.029,0.142l-0.26,0.038l-0.097,0.014l-0.139,0.021l-0.054,0.007l-0.064,0.01l-0.058,0.009l-0.06,0.01
		l-0.042,0.007l-0.009,0.001l-0.135,0.022l-0.104,0.017l-0.076,0.013l-0.044,0.007l-0.188,0.031l-0.08,0.017l-0.218,0.046
		l-0.351,0.265l0.101,0.36l0.065,0.221l0.095,0.327l0.016,0.051l0.003,0.01l0.046,0.153l0.022,0.07l0.06-0.001l0.15-0.001h0.286
		h0.269l0.134-0.001l0.028,0.003l0.065,0.007l0.01,0.001l0.203,0.024l-0.124,0.14l0.167,0.006l0.205-0.131l0.14,0.016l0.414,0.023
		l-0.152,0.138l0.406-0.015l-0.504,0.331l-0.479,0.418l-0.334,0.291l-0.296,0.257l-0.278,0.243l-1.221,1.098l-0.43,0.44
		l-0.673,0.779l-0.791,0.911l-0.024,0.028l-0.124,0.007l-0.018-0.03l-0.032-0.067l-0.005-0.003l-0.057,0.074l-0.015,0.024
		l-0.007,0.001l-0.055,0.076l0.005,0.004l0.008-0.002l0.002,0.029l0.001,0.023h0.005l0.063-0.026l0.079-0.032l-0.021,0.031
		l-0.413,0.608l-0.52,0.772l-0.22-0.229l0.109-0.178l0.119-0.192l0.172-0.28l0.055-0.088l0.247-0.399l0.118,0.063l0.004,0.003
		l0.053-0.072l0.02-0.027l0.006-0.001l0.055-0.075l-0.005-0.004h-0.01l-0.001-0.024l-0.002-0.028h-0.005l-0.062,0.031l-0.122,0.055
		h-0.014l-0.113,0.005l-0.923,0.034v0.024l-1.538,0.045l-0.04,0.277l-0.027,0.181l-0.036,0.226l-0.052,0.358l-0.053,0.337
		l-0.052,0.366l-0.03,0.188l-0.075,0.475l0.36,0.309l0.282,0.247l0.313,0.292l0.095,0.088l0.062,0.049l0.263,0.231l0.329,0.298
		l0.096,0.083l0.146,0.134l0.243,0.23l0.591,0.552l0.089,0.054l0.113,0.058l0.077,0.035l0.049,0.007l0.109,0.006l0.097-0.278
		l0.067-0.032l0.124-0.01l0.188-0.014l0.17,0.049l0.181,0.051l0.154,0.047l0.15,0.044l0.179,0.053l0.076-0.232l0.036-0.106
		l0.036-0.105l0.159-0.465l0.249-0.728l-0.164-0.013l-0.311,0.112l-0.297-0.108l-0.114-0.115l-0.099-0.098l-0.11-0.126l-0.031-0.037
		l-0.12-0.135l-0.12-0.138l-0.088-0.101l-0.037-0.038l-0.157-0.165l-0.111-0.115l-0.074-0.078l-0.24-0.25l-0.139-0.146l-0.039-0.041
		l-0.04-0.041l-0.225-0.233l1.152-1.543l0.037-0.049l0.013-0.016l0.06-0.068l0.667-0.77l0.662-0.768l0.435-0.444l1.198-1.079
		l0.158-0.138l0.271-0.236l0.505-0.44l0.305-0.265l0.135-0.118l1.183-0.785l0.237-0.154l0.182-0.159l0.193-0.169l0.018-0.016
		l0.074-0.065l0.103-0.086l0.198-0.164l0.204-0.171l0.118,0.158l0.303-0.122l0.1-0.04l0.181-0.066l0.019-0.008l0.248-0.092
		l0.012,0.142l0.029,0.313l0.013,0.142l-0.103,0.061l0.167,0.201l0.097,0.118l0.134,0.161l0.108,0.131l0.647,0.356l0.665,0.371
		l0.043,0.007l0.123,0.02l0.421,0.066l0.157,0.025l0.757,0.12l0.729,0.115l0.058,0.009l0.701,0.111l0.715,0.091l0.041,0.005
		l0.763,0.092l0.765,0.098l0.814,0.215l0.147,0.039l0.654,0.173l0.831,0.219l0.604,0.161l0.844,0.225l0.048-0.004l0.415-0.033
		l0.324-0.026l0.164-0.013l0.699-0.056l0.01-0.001l0.082-0.007l0.64-0.052l0.812-0.069l0.051-0.004l0.054-0.005l0.513-0.043
		l0.058-0.005l0.078-0.006l0.03-0.003l0.036-0.003l0.795-0.063l0.12-0.01l0.646-0.053l0.772-0.063l0.119-0.001h0.043h0.39
		l0.408-0.271l1.584-1.174l-0.243-2.135l-0.12-0.29l-0.685,0.252l-1.066,0.273l-0.372,0.06l-4.436,0.706l-0.19,0.029l-2.499,0.379
		l-0.024-0.214l-0.03-0.335l0.048-0.594l0.306-0.771l0.03-0.076l0.28-0.891l0.365-0.881l0.03-0.229l-0.004-0.253l-0.049-3.129
		l0.096-0.162l9.203-4.902l0.85-0.5l4.423-2.407l3.782-2.098l6.812-3.735l1.395-0.848l0.243,0.017l1.289,0.129l0.615-0.127
		l0.709-0.018l2.227-0.348l0.919-0.268l1.092-0.28l1.688-0.581l0.875-0.347l0.37-0.175l0.76-0.427l0.247-0.139l0.37-0.069
		l0.482-0.254l0.825-0.513l0.667-0.389l1.268-0.575l0.173-0.043l0.491-0.255l0.434-0.174l0.54-0.201l0.646-0.248l1.471-0.702
		l0.018,0.104l0.656-0.239l0.341-0.229l0.149,0.18l-0.01,0.107l0.052,0.009l0.794,0.005l0.557,0.177l0.888,0.166l0.181,0.031
		l0.632,0.101l1.709,0.136l0.704,0.03l0.928-0.362l0.097-0.026l0.832-0.205l1.363,0.048l0.114,0.005l1.824-0.123l2.425-0.156
		l1.347-0.171l0.142,0.411l0.304,0.886l0.335,1.231l0.32,1.825l0.201,1.078l0.09,0.697l0.371,1.958l0.427,2.686l-0.004,0.322
		l-0.04,2.951l-0.143,0.515l0.293,0.59l0.025,0.426l0.287,2.467l0.029,0.464l0.66-0.435l0.799-0.38l0.421-0.168l0.508-0.183
		l0.524-0.151l1.176-0.202l1.028-0.117l0.935,0.023l0.886,0.141l0.927,0.345l0.934,0.561l1.469,0.794l1.423,0.51l1.29,0.099
		l0.468,0.022l0.605,0.037l1.126-0.062l1.046-0.256l0.521-0.263l1.452-0.537l1.04-0.826l1.107-0.882l0.723-0.562l0.641-0.563
		l0.543-0.473l1.281-1.157l1.303-1.188l2.176-1.983l3.217-2.966l0.339-0.282l1.191-1.001l0.075-0.064l0.39-0.31l0.256-0.197
		l0.354-0.248l0.105,0.228l0.139,0.329l0.002,0.368l-0.098,0.457l-0.171,0.345l-0.262,0.225l-0.267,0.07l0.007,0.011l1.824,2.844
		l0.097,0.143l0.888,1.337l0.463,0.698l0.384,0.572l0.753,1.088l2.038,3.063l1.127,1.689l0.054,0.092l1.87,3.204l1.128,1.724
		l0.053,0.114l0.567,0.98l0.772-0.965l0.497-0.636l3.212-2.161l3.406-2.095l2.704-1.654l3.103-1.777l0.888-0.545l1.926-1.175
		l4.149-2.692l0.261-0.175l0.419-0.242l0.144-0.095l0.326-0.185l-0.058,1.188l-0.104,3.44l2.009,2.029l0.069,0.07l2.197,2.227
		l0.826,0.814l0.271,0.268l1.329,1.08l1.137,1.077l1.493,1.222l0.856,0.697l0.627,0.549l0.325,0.299l0.234,0.208l0.864,0.534
		l0.45,0.308l0.102,0.07l0.708,0.496l1.262,0.636l2.939,1.775l2.453,1.525l-1.051,6.095l3.146,0.319l0.879,0.034l0.484,0.019
		l1.04-0.005l0.183-0.015l2.026-0.177l0.556-0.029l0.016-0.001l0.106-0.009l2.132-0.17l1.171-0.096l0.198,2.138l0.061,0.606
		l0.217,2.173l0.194,2.213l-0.023,0.161l-0.076,0.554l0.103,0.925l-0.104,0.947l0.022,0.04l-0.032,0.906l0.116,0.642l0.127,0.052
		l0.016,0.896l2.241,0.139l0.194-0.001l4.505,0.249l1.136,0.132l0.42,0.056l0.174,0.026l0.999,0.161l1.263,0.201l0.403,0.065
		l1.362,0.07l0.722,0.112l1.522,0.271l0.47-0.083l1.207-0.199l0.425-0.066l-0.138,0.53l3.641,0.185l2.072,0.139l0.09-0.231
		l0.676-1.764l1.683-3.939l1.302-3.05l0.567-1.325l0.216-0.493l0.091-0.206l-0.021-0.707l-0.301-1.728l-0.235-0.759l-0.885-3.447
		l-0.029-0.105l-1.074-3.893l-1.491-5.377l-0.078-0.279l-0.807-2.905l-0.178-0.668l-0.189-0.715l-0.159-0.603l-0.256-0.938
		l-0.604-2.291l-0.087-0.957l0.081-0.959l0.06-0.536l0.194-0.87l0.567-0.206l0.099-0.043l0.217-0.048l1.254-0.314l1.597-0.646
		l1.231-0.463l1.342-0.428l1.183-0.314l0.511-0.14l0.145,0.009l1.15-0.327l2.289-1.167l2.308-0.982l0.166-0.034l0.195-0.065
		l1.186-0.432l0.511-0.23l0.642-0.319l0.931-0.477l1.169-0.533l0.151-0.078l0.562-0.256l0.332-0.157l0.604-0.547l0.665-0.37
		l0.24-0.133l0.154-0.084l0.078-0.046l0.978-0.506l0.054-0.028l0.659-0.364l0.405-0.246l0.239-0.143l0.108-0.065l0.31-0.185
		l0.337-0.203l0.241-0.126l0.055-0.027l0.241-0.112l0.012-0.005l0.174-0.077l0.04-0.016l0.314-0.121l1.197-0.488l2.585-0.734
		l1.697-0.156l0.163-0.044l0.082,0.07l0.212,0.026l0.255,0.096l1.394,0.563l1.141,0.226l0.175,0.932l0.06,0.161l0.318,1.062
		l0.412,1.462l1.138,3.533l0.826,2.096l0.027,0.079l1.278,3.671l1.07,2.751l0.878,2.715l0.47,0.416l0.137,0.522l-0.012,0.38
		l0.372,1.474l0.024,0.094l0.376,1.108l0.128,0.484l0.038,0.14l0.062,0.824l0.009,0.127l0.42,3.543l1.41-0.619l1.249-0.518
		l1.623-0.42l0.424-0.127l1.624-0.227l1.197-0.153l0.949-0.311l0.706-0.225l1.493-0.404l1.686-0.261l2.434-0.646l3.354-0.632
		l2.503-0.591l1.471-0.391l1.018-0.277l0.53-0.178l0.283-0.121l0.024-0.011l1.353-0.567l0.549,0.191l0.256,0.089l0.97,0.5
		l2.23,0.598l0.699,0.58l0.48,0.31l0.376,0.224l0.391,0.255l1.272,0.508l2.312,1.872l1.172-0.752l0.038-0.019l1.596-1.043
		l1.023-0.469l0.582-0.356l0.681-0.431l0.029,0.002l0.932-0.709h0.035l-0.157,0.735l-0.589,1.378l-0.193,0.571l0.094,0.249
		l-0.639,0.229l0.271,0.713l-0.597,1.899l-0.127,0.646l-0.199,1.14l-0.144,0.543l-0.213,2.268l-0.019,0.899l0.465,2.017l7.818,0.346
		l5.088,0.34l3.267,0.178l1.99,0.091l1.281,0.029l0.602-0.011l1.118-0.363l0.752-0.172l2.727-0.847l2.507-0.883l1.11-0.188
		l3.305-0.892l1.083-0.316l4.006-1.382l1.73-0.88l1.553-0.572l0.031-0.015l0.418,0.625l0.327,0.561l0.204,0.296l0.038,0.108
		l0.051,0.367l-0.17,0.558l-0.063,0.492l-0.022,0.382l-0.119,0.433l-0.031,0.3l0.012,0.306l0.127,0.297l0.136,0.195l0.195,0.694
		l0.242-0.067l0.235,0.035l0.128,0.225l0.058,0.301l-0.019,0.387l-0.234,0.681l0.028,0.368l0.819,1.434l0.634,0.256l0.854,0.278
		l0.521,0.129l0.181-0.021l0.09,0.019l0.106,0.149l0.15,0.345l0.394,0.533l0.116,0.229l0.232,0.226l0.394,0.197l0.244,0.268
		l0.114,0.146l0.778,0.844l0.145,0.577l0.154,0.387l0.198,0.397l0.534,0.504l0.271,0.336l0.305,0.511l0.24,0.412l0.504,1.124
		l-0.04,0.596l-0.595,0.732l0.148,0.322l0.571,1.044l0.206,0.842l-0.026,0.697l-0.103,0.469l-0.572,1.605l0.208-0.099l1-0.373
		l1.232-0.704l7.096-4.031l6.323-3.652l3.294,5.85l6.597-1.448l0.115,4.13l-0.011,1.525l-0.204,1.299l-0.305,0.706l1.012,0.395
		l2.289,0.355l-0.06,0.661l0.088,0.712l0.064,0.288l0.213,0.772l-0.051,1.105l-0.176,1.13l-0.183,0.366l-0.407,0.562l-0.958,0.523
		l-0.684,0.611l-1.813,1.339l-0.652,1.355l-0.249,0.246l-0.541,0.838l-0.065,0.357l-0.195,0.462l-0.191,0.581l0.021,0.655
		l0.181,0.472l-0.111,0.666l-0.181,0.476l-0.028,0.54l-0.087,0.208l-0.241,10.156l-0.761,0.074l-0.27,1.518l0.354,1.815l0.242,0.572
		l1.074,1.765l1.497,1.485l1.368,2.223l1.179,0.03l0.176,0.339l0.341,0.546l0.2,0.412l0.271,0.166l1.065,0.413l0.216,0.031
		l0.472-0.035l0.202-0.099l0.086,0.017l0.881-0.421l0.409-0.154l0.18-0.113l0.521-0.586l-0.031-0.296l-0.353-3.297l0.318-0.56
		l0.179-0.338l0.302-0.52l0.155-0.527l0.196-0.605l0.243-0.527l0.111-0.297l0.128-0.186l0.089-0.166l0.05-0.081l0.381-0.39
		l0.205-0.274l0.246-0.312l0.481-0.475l0.386-0.695l0.031-0.201l-0.146-0.216l0.038-0.344l0.14-0.336l0.246-0.51l0.15-0.518
		l-0.011-0.297l0.051-0.776l0.027-0.162l0.073-0.636l0.072-0.33l0.042-0.074l0.251-0.28l0.279-0.158l0.368-0.104l0.386-0.248
		l0.106-0.211l0.026-0.12l-0.144-0.188l0.425-0.568l0.278-0.214l0.105-0.022l0.539-0.296l0.118-0.137l0.374-0.188l0.184-0.145
		l0.113-0.033l0.088-0.266l-0.019-0.151l-0.007-0.078l0.074-0.193l0.299-0.302l-0.088-0.113l-0.062-0.129l-0.021-0.192l-0.015-0.282
		l0.039-0.173l0.183-0.465l0.079-0.31l0.136-0.427l0.105-0.178l0.705-0.821l0.19-0.145l0.094-0.086l0.232-0.165l0.2-0.052
		l0.237-0.004l0.24,0.065l0.226,0.004l0.002-0.082l-0.056-0.155l-0.068-0.299l-0.067-0.307l-0.064-0.291l-0.038-0.309l-0.022-0.292
		l0.046-0.233l0.145-0.434l0.097-0.337l-0.011-0.221l0.039-0.104l0.05-0.264l0.028-0.283l0.027-0.4l0.081-0.354l0.135-0.489
		l0.073-0.134l0.064-0.15l0.108-0.179l0.119-0.249l0.417-0.644l0.269-0.424l0.079-0.14l0.159-0.22l0.28-0.276l0.32-0.111
		l0.062-0.037l0.059-0.005l0.267-0.105l0.067-0.1l0.285-0.595l0.211-0.724l0.126-0.339l0.193-0.284l0.222-0.193l0.222-0.156
		l1.388-0.491l0.065-0.018l0.058-0.002l0.082-0.042l0.054-0.06l0.144-0.019l0.061-0.027l0.102-0.08l0.021-0.029l0.05-0.021
		l0.084-0.042l0.058-0.002l0.064-0.043l0.263-0.128l0.064-0.058l0.279-0.188l0.177-0.084l0.2-0.197l0.102-0.052l0.121-0.163
		l0.114-0.04l0.056-0.044l0.062-0.006l0.019-0.062l0.175-0.136l0.036,0.002l0.058-0.058l0.126-0.14l0.519-0.521l0.339-0.147
		l0.128-0.042l0.086-0.098l0.117-0.01l0.084,0.023l0.112-0.006l0.226,0.006l0.018,0.023l0.1-0.014l0.239-0.068l0.126-0.02
		l0.092,0.02l0.155,0.019l0.084-0.102l0.098-0.028l0.092,0.038l0.524-0.103l0.483,0.151l1.363,0.816l0.399,0.314l0.909,0.883
		l0.386,0.503l0.614-0.052l0.561-0.068l0.262-0.136l0.179-0.146l-0.205-0.219l0.31,0.036l0.203-0.045l0.231,0.054l0.191,0.082
		l0.254,0.146l0.325,0.237l0.036,0.117l0.29,0.067l0.033,0.056l0.057,0.002l0.136-0.022l0.027-0.054l-0.094-0.084l-0.397-0.129
		l-0.082-0.053l-0.082-0.14l-0.023-0.188l0.524-0.186l0.331-0.036l0.282-0.082l0.043-0.328l-0.122-0.219l-0.068-0.221l-0.012-0.098
		l0.012-0.173l0.1-0.257l0.28-0.402l0.329-0.253l0.16-0.247l0.429-0.379l0.209-0.309l0.157-0.144l0.423-0.709l0.449-0.802
		l0.189-0.247l0.306-0.357l0.252-0.612l0.405-0.389l0.464-0.771l0.04-0.03l0.137-0.432l0.193-0.255l0.029-0.209l0.525-0.801
		l0.112-0.451l0.09-0.319l0.244-1.011l-0.017-0.081l-0.12-0.322l-0.293-0.006l-0.4,0.002l-0.073-0.2l-1.474,0.282l0.634-2.881
		l0.271-0.814l0.217-0.525l0.015-0.421l-0.375,0.018l-1.447,0.382l-0.736,0.22l-0.577-0.346l-0.655-0.463l-0.036-0.025l-0.562-0.382
		l-1.971-1.406l-1.264,0.336l-0.422-0.415l-0.183-0.644l-0.61,0.022l-0.039-0.154l0.316-0.909l0.046-0.263l0.121-0.324l0.54,0.146
		l0.11-0.354l0.198-0.671l0.144,0.228l0.044,0.033l0.106,0.25l0.058,0.12l0.109,0.078l0.15,0.143l0.021,0.05l0.104,0.085
		l0.035-0.031l0.119,0.04l0.089-0.05l0.212-0.019l0.25-0.054l0.295-0.182l0.274-0.204l0.312-0.312l0.217-0.226l0.31-0.343
		l0.045-0.091l0.109-0.126l0.116-0.093l0.07-0.021l0.119-0.111l0.078-0.203l0.089-0.076l0.133-0.202l0.198-0.271l0.184-0.187
		l0.282-0.249l0.345-0.509l0.552-0.68l0.373-0.106l0.184-0.211l0.113-0.178l0.11-0.15l0.202-0.275l0.29-0.056l0.182-0.136
		l0.072-0.15l0.046-0.19l-0.024-0.379l0.229-0.473l-0.163-0.178l0.056-0.201l0.161-0.15l-0.002-0.002l0.017-0.196l0.157-0.219
		l0.319-0.159l0.19-0.022l0.004,0.132l-0.157,0.416l-0.13,0.079l-0.078,0.268l0.018,0.457l0.162,0.133l0.351-0.171l0.195-0.183
		l0.085-0.066l0.185-0.124l0.171-0.099l0.138-0.273l0.289-0.517l0.289-0.42l0.142-0.303l0.311-0.619l0.101-0.088l0.326-0.287
		l0.062-0.03l0.55,0.134l0.149-0.002l0.683-0.271l0.637-0.619l0.54-0.872l0.235-0.33l0.443-0.139l0.273,0.058l0.201,0.018
		l0.604-0.276l0.299-0.273l0.098-0.276l0.227-0.352l0.05-0.088l0.037-0.058l0.229,0.197l0.492-0.549l0.159-0.215l0.275-0.436
		l0.252-0.136l0.212-0.311l0.428-0.279l0.132-0.002l0.352-0.153l0.139-0.107l0.078-0.104l0.066-0.141l0.01-0.051l0.162-0.424
		l-0.027-0.055l0.088-0.23l0.229-0.201l0.487-0.229l0.481-0.485l0.642-0.025l0.159,0.108l0.317,0.674l0.106,0.146l0.366,0.153
		l0.358,0.061l0.129-0.018l0.329-0.097l0.441-0.254l0.249,0.122l1.722,0.869l0.09-0.109l0.055-0.02l0.157,0.005l0.164-0.057
		l0.195-0.232l0.282-0.145l0.23-0.163l0.158-0.033l0.176-0.281l0.037-0.178l0.062-0.133l0.215-0.223l0.064-0.164l0.118,0.146
		l0.145,0.049l0.37-0.057l0.509-0.284l0.115-0.146l0.062-0.262l0.134-0.055l0.053,0.004l0.021,0.049l0.313,0.241l0.098,0.084
		l0.466,0.153l0.093-0.059l0.031-0.102l-0.081-0.166l0.027-0.039l0.053-0.018l0.047,0.002l0.053-0.025l0.142-0.104l0.043,0.027
		l0.076,0.186l-0.006,0.1l0.017,0.099l0.217,0.197l0.132,0.031h0.115l0.911-0.591l0.076-0.412l0.277-0.22l0.385-0.342l0.243-0.237
		l0.133-0.15l0.141-0.246l0.006-0.003l-0.087-0.144l0.027-0.07l0.092-0.068l0.298-0.082l0.068-0.096l0.061-0.178l0.045-0.006
		l0.172,0.103l-0.006-0.094l-0.069-0.268l0.012-0.337l-0.016-0.687l0.071-0.446l0.108-0.346l0.189-0.848l0.104-0.454l0.339-0.997
		l0.121-0.178l0.254-0.135l0.273-0.143l0.467-0.178l0.504-0.23l0.51-0.324l0.155-0.28l0.156-0.184l-0.441-0.558l-0.393-0.756
		l-0.161-0.625l-0.21-0.423l-0.353-0.551l-0.129-0.113l-0.097-0.087l-0.368-0.201l-0.517-0.279l-0.49-0.327l-0.156-0.153
		l-0.077-0.191l-0.082-0.411l-0.088-0.322l-0.14-0.158l-0.189-0.156l-0.431-0.651l-0.266-0.437l-0.518-0.851l-0.367-0.669
		l-0.065-0.179l-0.194-0.214l-0.602-1.008l-0.105-0.311l-0.029-0.192l-0.014-0.219l0.02-0.37l0.074-0.24l0.064-0.236l0.156-0.541
		l0.296-0.83l0.427-0.825l0.079-0.454l-0.003-0.472l-0.007-0.152l-0.009-0.124l-0.147-0.484l0.217-0.332l0.17-0.258l0.149-0.227
		l1.185-1.809l0.166-0.253l2.624-4.219l0.167-0.211l0.296,0.039l0.991,0.253l0.067-0.268l0.821,0.285l0.352-0.403l0.219-1.474
		l0.063,0.004l0.029-0.161l-1.952-0.758l0.389-1.106l0.254-1.812l0.077-0.567l0.068-0.489l-1.42-0.311l-0.365-0.079l-1.444-0.314
		l-1.803-0.427l-0.438-0.097l-0.812-0.271l-0.812-0.322l-1.435-0.756l-0.595-0.351l-0.299-0.213l-0.051-0.031l-0.311-0.223
		l-1.374-1.114l-0.599-0.419l-0.14-0.097l0.021-0.24l0.013-0.145l0.338,0.398l0.387,0.148l0.255,0.206l1.612,1.305l1.437,0.87
		l1.046,0.498l0.527,0.227l1.16,0.385l3.351,0.669l0.394,0.078l0.056-0.197l0.079-0.279l1.467,0.288l1.656,0.132l0.034-0.254
		l0.193-1.472l-0.161-0.188l0.036-0.267l0.188-1.312l0.315-2.224l0.296-0.257l1.469-1.271l3.015-2.553l2.026-0.074l2.033-0.072
		l-1.299,5.646l1.147,0.165l0.957,0.156l1.132,0.179l0.629,0.088l0.211-0.503l0.104-0.192l0.106-0.198l0.123-0.188l0.158-0.287
		l0.112-0.392l-0.152-0.2l-3.911-0.614l0.401-1.844l0.437-1.818l0.235-0.984l0.149-0.559l-1.724-0.311l-0.062-0.021l-0.104-0.034
		l0.855-1.994l0.288-0.659l0.298-0.663l-0.732,0.198l-0.253-0.612l-0.733-0.867l-0.487-0.428l-0.467-0.232l-1.658-0.528
		l-0.245-0.154l-0.18-0.103l-0.266-0.131l-0.746-0.102l-1.203-0.207l-0.646-0.164l-0.521-0.173l-1.038,0.342l-0.605-0.113
		l-0.616-0.178l-0.594-0.15l-2.08-0.38l-0.398-0.159l-0.479-0.142l-0.604-0.383l-0.023-0.399l-0.521-0.084l-0.328-0.072
		l-0.645,0.217l-0.491,0.206l-0.701-0.102l-0.192-0.067l-1.654-0.315l-1.339-1.547l-4.55-5.243l-0.036-0.047l-0.652-1.363
		l-0.505-1.109l-1.063-2.194l-0.521-1.159l-0.325-0.742l-0.155-0.489l-0.896-0.134l-0.613-0.006l-0.316,0.043l-0.791-0.203
		l-0.456-0.122l-0.037-0.009l-1.706-1.107l-0.812-0.518l-0.869-0.523l-0.661-0.443l-0.622-0.529l-0.741-0.57l-0.91-0.795
		l-0.386-0.387l-0.17-0.294l-0.278-0.485l-0.818-0.033l-0.703-0.026l0.174,0.384l0.2,0.429l0.339,0.742l0.325,0.713l0.42,0.875
		l0.562,1.163l0.086,0.174l0.321,1.203l0.171,1.199l0.123,1.318l0.134,0.763l0.124,0.463l0.516,0.059l0.817,0.152l0.052,0.402
		l0.102,0.833l0.076,1.24l-0.133,1.2l-0.109,1.181l-0.439,0.998l-0.534-0.058l-0.502-0.056l-0.987-0.006l-0.161-0.009l-0.863-0.133
		l-0.844-0.225l-0.483-0.087l0.124-0.405l0.035-0.292l0.067-0.674l-0.019-0.15l-0.112-0.808l-0.554-1.374l-0.029-0.926l-0.012-0.28
		l-0.071-1.096l-0.308-1.399l-0.221-0.538l-0.289-0.708l-0.306-0.797l-0.213-0.579l-0.179-0.013l0.058-0.197l-0.971-0.259
		l-1.099-0.154l-1.043-0.218l-0.807-0.31l-0.437-0.006l-0.545-0.008l-0.13-0.018l-0.483-0.046l-0.679-0.065l-0.826-0.316
		l-0.718-0.292l-1.113-0.464l-1.232-1.356l-0.121-0.142l-0.257-0.286l-0.2-0.228l-0.055-0.081l-0.051-0.069l-0.191-0.301
		l-0.241-0.356l-0.298-0.461l-0.236-0.347l-1.554-0.898l-0.814-0.738l-1.297-0.817l-1.241-1.038l-0.722-0.637l-0.336-0.29
		l-0.414-0.224l-0.374-0.179l-0.974-0.329l-0.153-0.146l-0.081-0.495l-0.132,0.048l-1.562,0.538l-0.694,0.062l-0.783,0.064
		l-0.427-0.152l-0.437-0.232l-0.368-0.192l-0.608-0.302l-0.176-0.135l-0.097-0.079l-0.62-0.263l-0.364-0.274l-0.951-0.889
		l-0.729-0.772l-1.301-0.426l-0.876-0.459l-0.25-0.185l-0.51-0.287l-0.876-0.507l-0.573-0.303l-0.7-0.362l-0.479-0.128l-0.21-0.021
		l-1.738-0.091l-0.549-0.162l-0.12-0.035l-0.52-0.152l-0.479,0.516l-0.56,0.473l-0.357,0.228l-1.045,0.678l-1.464,1.023l-0.531,0.48
		l-0.651,0.258l-0.564,0.223l-2.903,0.967l-0.433,0.376l-0.266,0.315l-0.71,0.664l-0.535,0.314l-0.282,0.069l-0.296-0.021
		l-0.374-0.074l-0.377-0.196l-0.243-0.026l-0.218,0.044l-0.421,0.222l-0.255,3.722l-0.043,0.153l-0.069,0.235l-0.023,0.516
		l-0.013,0.247l-0.011,0.229l-0.001,0.01l0.233,0.101l0.118,0.101l0.065,0.179l-1.195,0.005l-0.202,0.021l-0.081,0.01l-0.18,0.017
		l0.018,1.133l0.164,0.743l0.186,0.345l-0.174,0.171l-0.127,0.127l-0.142,0.144l-0.731-0.196l-0.187-0.08l0.185-0.326l0.142-0.302
		l0.056-1.438l-0.45-0.07l-0.025-1.565l0.059-0.643l0.01-0.097l-0.521-0.166l-2.248-0.616l-0.338,0.097l-1.06,1.25l-0.153,0.026
		l-1.719-0.473l-0.367-0.102l-0.471-0.147l-0.093-0.027l1.323-1.737l0.873-1.166l1.186-1.49l0.13-0.55l-0.357-0.224l-0.735-0.311
		l-0.82-0.262l-0.052-0.049l0.093-0.646l0.281-1.64l0.07-0.106l0.234-1.91l0.21-1.316l0.101-0.209l0.149-0.28l2.124-2.97
		l0.939-1.281l0.507-0.691l1.855-2.531l0.239-0.329l1.255-1.688l0.083-0.11l1.048-1.407l0.843-1.133l1.16-1.509l0.026-0.063
		l0.038-0.09l-2.738-0.673l-0.736-0.434l-0.495-0.289l0.695-1.836l0.283-0.753l0.311-0.816l0.333-1.001l0.304-1.111l0.895-4.779
		l0.285-1.323l0.305-1.291l0.201-0.667l0.1-0.27l0.095-0.308l0.059-0.165l0.14-0.247l0.408-0.94l1.023-2.391l0.527-1.129l0.185-0.41
		l0.21-0.46l0.149-0.271l0.34-0.643l0.308-0.518l0.365-0.538l0.052-0.078l0.061-0.088l0.252-0.307l0.071-0.087l1.26-1.483
		l0.05-0.048l0.049-0.048l1.354-1.34l1.21-1.414l0.604-0.629l0.387-0.359l0.515-0.425l0.777-0.604l1.612-1.247l0.312-0.241
		l1.16-0.766l2.157-1.422l2.563-1.781l1.017-0.994l0.123-0.123l1.028-0.858l-0.251-0.362l-0.114-0.324l-0.143-0.876l-0.424-2.083
		l-0.216-0.977l-3.699,0.136l-2.335,0.077l-0.944-0.011l-1.398-0.123l-0.85-0.081l-0.512-0.182L704,488.029l-0.349-0.122
		l-0.653-0.111l-0.263-0.017l-0.434-0.021l-2.213-0.096l-1.906-0.021l-0.66-0.04l-0.976-0.009l-0.563,0.049l-1.219,0.17
		l-1.388,0.255l-0.15,0.021l-0.029,0.047l-0.503-0.319l-0.227,0.254l-0.181-1.199l-0.204-1.276l-0.226-1.434l0.657-0.577
		l0.025-0.127l-0.097-0.731l-0.094-0.709l-0.01-0.082l-0.123-0.881l-0.117-0.88l-0.022-0.152l-0.093-0.688l-0.023-0.263l1.779,0.489
		l0.185,0.022l0.135-0.005l0.093-0.026l0.171-0.097l0.202-0.195l0.218-0.211l0.339,0.122l0.764,0.271l0.079,0.013l0.069-0.048
		l0.175-0.21l0.406-0.167l0.085-0.029h0.079l0.681,0.334l0.212-0.01l0.024-0.076l0.187,0.061l0.243,0.135l0.146,0.053l0.152-0.431
		l0.165,0.054l-0.012,0.042l0.089,0.032l0.009-0.021l0.023,0.009l0.126-0.377l0.117,0.035l0.165-0.261l0.305-0.49l0.086-0.137
		l0.468-0.767l0.52-0.834l0.369-0.626l-0.178-1.508l-0.694,0.011l-0.619-0.054l-0.367-0.275l-0.412-0.348l-0.616-0.088l-0.624-0.103
		l-1.332-0.195l-1.468-0.23l-1.31-0.19l-1.579-0.229l-0.676-0.085l-0.124-0.007l-2.179-0.304l-0.386-0.065l-0.224-0.021
		l-0.121-0.023l-0.277-0.058l-0.348-0.092l-0.565-0.149l-0.056,0.062l-0.133-0.027l-2.451-0.67l-2.07-0.535l-0.193-0.073
		l-0.549-0.145l-1.552-0.407l-2.658-0.705l-0.101-0.026l-0.107-0.031l-2.312-0.648l-0.167-0.048l-0.516-0.141l-0.045-0.022
		l-0.446-0.117l-0.164-0.048l-2.202-0.618l-1.305-0.367l-0.12-0.035l-0.056-0.013l-0.121-0.031l-1.758-0.49l-1.728-0.486
		l-0.094-0.022l-0.075-0.012l-0.078-0.022l-0.118-0.021l-0.093-0.014l-0.093-0.022l-0.067-0.013l-0.121-0.021l-0.071-0.026
		l-0.089-0.09l-0.065-0.104l0.008-0.209l0.049-0.185l0.068-0.148l0.042-0.118l0.287-0.724l0.087-0.411l-0.019-0.412l0.036-0.179
		l0.19-0.285l0.161-0.478l0.111-0.43l0.045-1.546l0.039-1.332l-0.083-0.543l-0.831-1.786l-0.134-0.439l-0.421-0.604l-0.48-0.674
		l-0.267-0.688l-0.123-0.64l-0.055-1.354l-0.171-0.823l-0.087-0.42l-0.056-0.386l-0.035-0.789l-0.07-0.578l-0.479-1.31l-0.016-0.08
		l-0.039-0.179l0.034-0.474l-0.07-0.543l0.022-0.232l0.101-0.395l0.061-0.236l0.021-0.398l-0.059-0.645l-0.021-0.107l-0.044-0.226
		l-0.155-0.596l-0.225-0.626l-0.491-1.512l-0.238-0.627l-0.016-0.171l-0.07-0.141l-0.075,0.022l-0.055,0.062l-0.696,0.021
		l-0.851,0.004l-0.772,0.009l-0.044-0.061l-0.025-0.079l-0.234-0.815l-0.081-0.263l-0.165-0.592l-0.048-0.157l-0.075-0.157
		l-0.089-0.123l-0.107-0.102l-0.425-0.315l-0.159-0.136l-0.348-0.275l-0.248-0.188l-0.14,0.005l-0.119,0.021l-0.869,0.28
		l-1.178,0.367l-0.062-0.004l-0.255-0.022l-0.269-0.025l-0.599-0.03l-0.233-0.01l-0.395-0.013l0.076,0.343l-0.417-0.023
		l-0.059-0.326l-0.154-0.461l-0.343-0.717l-0.071-0.141l-0.181-0.374l-0.36-0.691l-0.277-0.81l-1.433-2.462l-0.469-0.551
		l-0.173-0.203l-0.569-0.775l-0.261-0.354l-0.393-0.531l-0.514-0.577l-0.435-0.488l-1.711-1.572l-1.375-1.263l-0.642-0.592
		l-0.286-0.215l-1.156-0.868l-2.206-1.663l-0.243,0.021l-0.118-0.075l-0.92-0.584l-0.143-0.082l-0.537-0.251l-0.046-0.021
		l0.113-0.319l-0.588-0.232l-3.049-1.201l-0.181-0.07l-2.236-0.824l-0.943-0.333l-0.906-0.316l-0.774-0.271l-3.438-1.241
		l-1.651-0.509l-0.132-0.026l-3.085-0.578l-1.52,0.065l-2.097,0.149l-0.338,0.039l-0.705,0.084l-3.731,0.24l-1.865,0.078
		l-1.613-3.73l-0.318-0.898l-0.124-0.295l-1.84-4.085l-0.579-1.364l-1.199-2.823l-0.805-1.89l-0.915,0.061l-0.591,0.338l0.029-0.223
		l0.24-1.785l0.987-4.346l0.054-0.169l0.143-0.359l0.392-1.286l0.648-1.544l0.168-0.563l0.435-1.419l0.682-2.345l0.841-2.146
		l0.21-0.136l0.553-0.241l0.415-0.263l0.217-0.048l0.063-0.142l0.036-0.224l-0.008-0.039l0.005-0.666l0.018-1.979l0.116-2.649
		l0.019-1.102l0.062-0.167l0.281-0.25l0.266-0.176l0.924-0.609l1.737-1.08l0.422-0.215l0.77-0.39l2.551-1.158l1.281-0.623
		l0.062-0.146l0.454-2.238l1.282-4.098l0.86-3.312l0.129-0.664l0.031-0.17l0.033-0.177l0.249-0.921l0.108-0.86l0.031-0.223
		l0.07-0.58l0.025-0.191l0.299-3.162l0.087-0.777l-0.885,0.07l-0.88,0.07l-0.512-1.54l-0.347-1.045l-0.063-0.044l-1.937,0.685
		l-0.603,0.281l-0.091,0.043l-1.697,0.791l-1.665-1.397l-0.114-0.084l-0.167-0.117l-1.251-1.114l-0.61-0.501l-0.145-0.123
		l-0.762-0.781l-0.528-0.268l-0.701-0.456l-0.595-0.21l-0.351-0.164l-0.155-0.135l-0.208-0.185l-0.649-0.387l-0.458-0.285
		l-0.259-0.167l-0.166-0.065l-0.169-0.005h-0.077l-1.049-0.663l-0.603-0.377l-0.928-0.598l0.074-0.092l-1.593-1.027l-0.076,0.092
		l-1.18-0.808l-0.003-0.167l-0.67-0.636l-0.959-0.909l0.103-0.065l-0.221-0.242l-0.143-0.157l-2.903-4.088l0.649-3.464l0.204-1.52
		l0.21-1.776l0.237-1.569l0.173-1.612l0.218-1.045l0.426-0.936l0.012-0.093l-0.19-0.536l-1.438,0.796l-0.74,0.324l-0.324,0.105
		l-4.586,1.881l-1.403,1.097l0.006-0.637l-0.322-0.694l-0.385-0.649l0.94-3.115l2.631-4.295l-0.354-0.685l-1.727,1.813l-1.138-1.268
		l-3.303,4.562l-0.161-0.026l-3.174,4.509l-4.448-2.212l-0.072,0.105l-0.207,0.312l-0.772,0.978l-1.962,2.451l-0.39,0.196
		l-2.156,2.716l-0.578,0.564l2.12,0.878l5.997,5.071l7.716,1.128l0.171,0.328l0.228,0.301l0.116,0.294l-0.008,0.265l-0.065,0.421
		l-0.087,0.379l-0.042,0.629l-0.086,0.196l-0.139,0.185l-0.268,0.198l-0.602,0.333l-0.582,0.522l-0.772,0.844l-0.2,0.311
		l-0.152,0.137l-0.437,0.193l-0.127,0.004l-0.26-0.049l-0.168,0.022l-0.191,0.066l-0.414-0.036l-0.424,0.022l-0.207,0.062
		l-0.218,0.101l-0.548,0.353l-0.258,0.236l-0.312,0.303l-0.434,0.237l-0.487,0.196l-0.381,0.331l-0.275,0.398l-0.396,0.838
		l-0.062,0.084l-0.729,0.316l-0.319,0.136l-0.586,0.438l-2.127-0.245l-2.44-0.312l-0.727-0.079l0.216-0.952l-0.195-0.119
		l-0.949-0.07l-1.446-0.222l-0.616-0.032l-0.584,0.145l-0.655,0.261l-0.586,0.177l-0.984-0.023l-0.253,0.171l-0.488,0.279
		l-0.149,0.062l-0.21,0.022l-0.288,0.026l-0.017-0.242l-0.048-0.108h-0.184l-0.333,0.108l-0.082,0.132L563,353.985l-0.275,1.875
		l-0.635,0.145l-1.428,0.341l-0.97,0.221l-1.111,0.319l-0.078,0.58l-0.109,0.947l-0.114,1.798l0.266,1.625l0.219,1.091l0.05,0.612
		l0.098,0.764l-0.704,0.514l-0.457,0.281l-1.491-0.104l-1.391-0.077l-0.375-0.037l-0.449,0.297l-0.25,0.211l-0.309,0.229
		l-1.511,1.393l-1.947-1.626l-1.082-0.873l-2.059-1.566l-0.417-0.343l-1.118-1.487l-0.394-0.479l0.351-0.631l0.022-0.307
		l-0.031-0.348l-0.082-0.245l-0.606-0.118l-0.259-0.075l-0.13-0.074l-0.399-0.465l-0.335-0.387l-1.571,0.413l-0.896,0.236
		l-0.548,0.148l-0.149,0.15l-0.281-0.373l-0.28-0.382l-0.19-0.225l-0.209-0.228l-0.261-0.188l-1.052-0.624l-0.717-0.51l-0.561-0.46
		l-0.837-0.777l-1.031-1.084l-0.355-0.378l-0.427-0.482l-0.374-0.421l-0.078-0.088l-0.185-0.285l-0.094-0.062l-0.153-0.109
		l-0.139,0.026l-0.206,0.123l-0.353,0.47l0.286,0.215l-0.367,0.391l-0.218,0.058l-0.478-0.005l-0.905-0.245l-0.045,0.311l-0.1,0.202
		l-0.151,0.32l0.036,0.032l0.094,0.083l-0.065,0.083l-0.462,0.685l-0.036,0.241l-0.179,0.295l-0.248,0.398l-0.109,0.347l-0.01,0.281
		l-0.073,0.303l-0.024,0.093l-0.005,0.123l-0.032,0.653l-0.072,0.264l-0.274-0.109l-0.479,0.666l-0.057,0.084l-0.38,0.535
		l-0.04,0.058l-0.039,0.053l-0.08,0.162l-0.131,0.254l-0.074,0.374l0.01,0.622l0.047,0.501l-0.021,0.113l-0.016,0.08l0.004,0.29
		l0.005,0.294l0.005,0.28l-0.064,0.308l-0.041,0.1l-0.125,0.309l-0.042,0.104l-0.121,0.514l-0.007,0.229l-0.089,0.215l-0.203,0.271
		l-0.5,0.663l-0.193,0.128l-0.318,0.14l-0.364,0.177l-0.949,0.434l-0.423,0.123l-0.183,0.021l-0.178,0.021l-0.083-0.013
		l-0.125-0.026l-0.179-0.031l-0.35-0.096l-0.309-0.035l-0.13,0.008l-0.089,0.01l-0.073,0.021l-0.222,0.07l-0.094,0.049l-0.16,0.087
		l-0.297,0.33l-0.018,0.122l0.596,0.365l0.062,0.074l0.063,0.079l0.129,0.373l-1.559,0.653l-0.205,0.304l-0.405,0.548l-0.439-0.526
		l-0.368,0.526l-0.361,0.519l-0.133,0.53l-0.896,1.496l-0.131,0.22l-0.185,0.149l-0.198,0.034l0.494,0.732l0.616,0.94l-0.117,0.179
		l-0.429,0.413l-1.686,1.628l-0.97,0.364l-0.151,0.149l-0.209,0.17l-0.065,0.036l-0.192-0.022l-0.052,0.022l-0.207,0.097
		l-0.217-0.014l-0.237-0.189l-0.33,0.423l-0.389,0.636l-0.082,0.18l-0.062,0.192l-0.54,0.465l-0.192,0.094l-0.195-0.049
		l-0.095-0.045l-0.05-0.021l-0.142-0.07l-0.054-0.167l-0.129-0.026l-0.309,0.225l-0.01,0.145l0.187,0.254l-0.295,0.032l-0.276-0.102
		l-0.196-0.136l-0.134,0.258l-0.064,0.123l-0.268,0.018l-0.083-0.079l-0.25-0.232l-0.23,0.172l-0.27,0.03l0.2,0.148l0.151,0.115
		l0.081,0.061l0.246,0.18l-0.256,0.207l-0.164,0.092l-0.424,0.119l-0.244-0.022l-0.034-0.084l-0.076-0.175l-0.035-0.079
		l-0.155-0.084l-0.394-0.008l-0.262,0.07l-0.114,0.065l-0.165,0.22l-0.137,0.298l-0.09,0.053l-0.22-0.049l-0.139,0.039l-0.167,0.198
		l-0.189,0.092h-0.218l-0.246-0.034l-0.166,0.052l-0.153,0.132l-0.312,0.557l-0.576,0.163l-0.153,0.078l-0.241,0.185l-0.414-0.109
		l-0.205-0.013l-0.169-0.102l-0.103-0.021l-0.064,0.039l-0.154-0.021l-0.156-0.18l-0.286-0.154l-0.076-0.009l-0.088,0.088
		l-0.049,0.035l-0.092,0.07l-0.181,0.066l-0.049,0.157l-0.062,0.065l-0.694,0.036l-0.307,0.092l-0.179,0.118l-0.037,0.054
		l-0.049,0.208l-0.012,0.051l-0.064,0.039l-0.064-0.039l-0.064-0.242l-0.023-0.084l-0.214-0.109l-0.154-0.009l-0.103,0.026
		l-0.204,0.133l-0.194-1.054l-3.119,0.3l-1.906-0.12l-0.156,0.182l-0.142,0.132l-0.135-0.054l-0.205-0.023l-0.205,0.026
		l-0.437,0.176l-0.335-0.062l-0.165,0.005l-0.602,0.176l-0.375-0.114l-0.629,0.075l-0.247-0.193l-0.167-0.009l-0.115,0.053
		l-0.061,0.298l-0.062,0.088l-0.231,0.006l-0.173,0.042l-0.144,0.085l-0.331,0.184l-0.173,0.174l-0.007,0.047l-2.707-1.819
		l-0.208,0.216l-0.648-0.416l-1.535-0.999l-0.52-0.227l-0.908-0.275l-0.242-0.034l-0.295-0.054l-0.29-0.067l-0.448-0.136
		l-0.322-0.161l-0.764-0.336l-0.281-0.073l-2.81-0.254l-0.479-0.148l-0.584-0.274l-0.479-0.194l-0.69-0.181l-0.844-0.289
		l-0.929-0.468l-0.569-0.209l-0.467-0.019l-0.248,0.023l-0.448,0.057l-0.16,0.024l-0.525,0.062l-0.854,0.1l-0.435,0.023
		l-0.792,0.203l-0.085,0.013l-1.272,0.186l-1.971,0.472l-0.058-0.412l0.206-0.14l0.279-0.168l0.306-0.142l1.018-0.316l0.512-0.407
		l0.405-0.194l0.932-0.239l0.491-0.148l0.248-0.083l0.594-0.374l0.216-0.228l0.198-0.385l-0.414-0.103l0.061-0.592l0.292-0.011
		l-0.104-0.592l-0.157-0.53l-0.027-0.462l-0.041-0.184l-0.259-0.718l-0.261-0.487l-0.207-0.305l-0.071-0.139l-0.141-0.322
		l-0.304-0.647l-0.194-0.375l-0.721-1.39l-0.296-0.571l-0.296-1.024l0.892-0.242l0.006-0.245l-0.099-0.388l-0.081-0.664
		l-0.376-1.053l0.723-0.093l-0.028-0.486l0.478,0.01l0.197-0.158l-0.054-0.611l0.546-0.786l-0.049-0.563l0.218-0.048l-0.104-0.79
		l0.28-0.127l-0.147-1.237l-0.019-0.141l-0.521,0.158l-0.285-0.551l-0.854-1.651l-0.587-1.59l-3.781-7.247l3.18-2.145l3.534-2.383
		l-0.063-0.104l-0.092-0.106l-0.162,0.048l-0.654-0.544l0.104-0.268l-0.761-0.715l-0.171-0.256l-0.235-0.438l-0.123-0.242
		l-1.918,0.216l-0.955,0.198l-0.09,0.017l-0.46,0.049l-0.419,0.004l-0.645-0.118l-0.462-0.021l-0.144-0.01h-1.319l-0.563-0.002
		l-0.665-0.002l-0.636,0.013l-0.073,0.004l-0.282,0.01h-0.051l-0.247-0.01l-0.15-0.004l-0.33-0.009l-0.064-0.026l-0.311-0.128
		l-2.033-0.426l-1.047-0.12l-0.104-0.013l-0.228,0.02l-0.098,0.009l-0.145,0.008l-0.073-0.004l-0.129-0.008l-0.241-0.031
		l-0.193-0.057l-0.231-0.093l-0.44-0.18l-0.428-0.141l-0.519-0.084l-0.553-0.088l-0.493-0.092l-0.251-0.157l-0.271,4.392
		l-0.146,2.396l-0.012,0.175l-0.162,2.354l2.233,0.154l-0.027,0.435l-0.13,2.045l-0.238,2.262l-0.077,0.069l-0.206-0.162l0.291,0.64
		l-0.16,1.922l-0.381,5.931l-0.209,0.031l-0.48,0.07l-0.906,0.123l-3.188,0.755l-0.41,0.035l-1.423-0.098l-1.854,0.526l-1.297,0.115
		l-0.252,0.022l-2.912-0.623l-2.044-0.475l-0.127-0.031l0.05,0.692l0.043,0.389l0.044,0.5l0.089,0.484l0.083,0.187l0.203,0.452
		l0.531,0.991l0.227,0.418l0.271,0.75l0.062,0.171l0.312,1.211l0.141,0.663l-0.074,1.501l-0.051,1l-0.01,0.47l-0.051,0.754
		l-0.165,1.62l-0.019,0.864l-0.086,1.029l-0.021,0.285l-0.118,1.507l-0.465-0.422l-0.614-0.101l-0.863-0.364l-0.848-0.188
		l-0.377,0.075l-1.221-0.01h-0.526l-0.328,0.162l-0.242,0.044l-1.296,0.045l-0.411,0.013l-0.885,0.18l-0.394,0.019l-1.151-0.089
		l-0.362-0.078l-0.371-0.08l-0.186,0.01l-0.82,0.215l-0.227-0.074l-0.116,0.179l-0.337-0.017l-0.5-0.026l-0.218-0.031l-1.635-0.938
		l-0.348-0.128l-0.379-0.078l-0.303,0.078h-0.154l-0.168,0.044l-0.086,0.031l-0.15,0.061l-0.103,0.04l-0.076,0.03l-0.108,0.04
		l-0.631,0.162l-3.242,0.119l-1.959,0.294l-0.217,0.136l-1.187,0.078l-0.465-0.034l-0.788-0.058l-0.474-0.07l-0.471-0.07
		l-0.686-0.188l-0.246-0.034l-0.044-0.5h-0.141l-0.124-0.015l-0.057-0.008l-0.287-0.101l0.015,0.118l-0.375-0.088l-0.259-0.101
		l-0.889,0.254l-0.225-0.013l-0.861-0.062l-0.605-0.043l0.017,0.486l-0.043,0.514l-0.123,0.491l-0.08,1.316l-0.063,0.667
		l-0.172,0.724l-1.232,2.712l-0.184,0.398l-0.812,1.982l-1.053,0.988l-0.308,0.246l-0.812,1.696l-1.06,2.211l-1.932,3.833
		l-0.091,0.198l-0.534,1.141l-0.559,1.191l-0.476,0.79l-0.22,0.364l-0.278,0.416l-0.348,0.338l-0.507,0.29l-1.204,0.518
		l-0.221,0.118l-0.288,0.128l-0.325,0.21l-0.196,0.211l-0.236,0.244l-0.101,0.312l-0.045,0.461l0.006,0.518l0.061,0.684l0.054,0.28
		l0.335,0.874l0.365,0.513l0.578,0.645l1.428,2.109l0.995,1.662l0.437,0.727l1.295,1.431l0.964,1.064l0.522,0.466l1.68,1.283
		l0.267,0.183l0.832,0.634l1.954,2.035l0.501,0.897l0.265,1.149l-0.236,0.797l-0.569,1.978l-0.521,1.67l-0.086,0.329l-4.163-1.119
		l-2.712-0.169l-0.438,2.038l-0.915-0.284l-0.511-0.352l-0.766-0.444l-0.703-0.383l-0.852-0.629l-0.702-0.402l-0.61-0.144
		l-0.695-0.139l-0.427-0.258l-0.267-0.079l-0.599-0.24l-0.987-0.167l-0.679-0.146l-0.348-0.05l-0.656-0.208l-0.738-0.203
		l-0.179-0.136l-0.437-0.192l-0.166-0.175l-1.024-0.879l-0.735-0.333l-0.908-0.463l-0.827-0.535l-0.246-0.379l-0.29-0.285
		l-0.258-0.284l-0.769-0.373l-0.501-0.143l-0.128-0.021l-0.395-0.051l-0.491-0.162l-0.338-0.178l-1.02-0.511l-0.638-0.288
		l-0.328-0.041l-0.729-0.012l-0.354-0.079l-1.11-0.133l-0.723-0.239l-0.247-0.174l-0.543-0.635l-0.404-0.306l-0.742-0.295
		l-0.586-0.286l-1.39-0.245l-0.149-0.015l-0.731-0.749l-0.351-0.268l-1.162-1.039l-0.255,0.065l-2.068,0.5l-1.319,0.32l-1.663,0.495
		l-0.618,0.267l-0.48,0.325l-0.351,0.329l-0.267,0.359l-0.438,0.793l-0.079,0.137l-0.479,0.824l-0.922,1.363l-0.171,0.21
		l-1.727,2.127l-2.02,1.21l-1.953,1.232l-2.811,0.666l-0.979,0.38l-1.485,1.461l-0.255,0.118l-1.962,0.495l-1.066,0.049h-0.075
		l-0.943-0.392l-0.562-0.155l0.303,0.359l0.304,0.359l0.303,0.359l0.303,0.359l0.304,0.359l0.303,0.359l0.304,0.358l0.303,0.359
		l0.303,0.359l0.304,0.359l0.303,0.359l0.304,0.359l0.303,0.359l0.154,0.183l0.148,0.177l0.304,0.359l0.303,0.359l0.304,0.359
		l0.303,0.359l0.303,0.359l0.91,1.077l0.909,1.078l1.213,1.438l0.303,0.359l0.303,0.359l0.304,0.359l0.303,0.359l0.304,0.359
		l0.303,0.358l0.303,0.359l0.304,0.359l0.303,0.359l0.304,0.359l0.303,0.359l0.303,0.359l0.304,0.359l0.303,0.359l0.304,0.359
		l0.303,0.359l0.304,0.359l0.303,0.358l0.303,0.359l0.304,0.359l0.303,0.359l0.304,0.359l0.303,0.359l0.303,0.359L362.034,441.834z
		 M116843.648-125083.703v20539.055v27750v27822.543v28115.805V8484.392v19126.953v16127.992V59867.32v19126.961v29340.688
		v17908.719h-242007.344v-251327.391H116843.648z"/>
	<path fill="none" stroke="#FF0000" stroke-width="6" stroke-miterlimit="10" d="M-67200.508,20896.621l-0.133,0.006l-0.25-0.164
		l-0.352-0.232l-2.094-0.02l-1.812-0.018l-0.586-0.006l0.125,1.787l0.148,2.047l-0.016,0.479l0.008,0.379l-0.023,0.156v0.408
		l0.047,0.68l-0.086,2.695l-0.039,1.777l1.266-0.014l1,0.031l2.445,0.049l2.703,0.078l1.766,0.037l0.93,0.012l0.008-0.32
		l0.055-1.004l-0.07-0.021l-0.039-1.691l-0.023-0.996l0.062-3.129l0.102-2.928l-1.078-0.033l-3.008-0.033L-67200.508,20896.621z
		 M116843.648-125083.703v20539.055v27750v27822.543v28115.805V8484.392v19126.953v16127.992V59867.32v19126.961v29340.688
		v17908.719h-242007.344v-251327.391H116843.648z"/>
	<path fill="none" stroke="#FF0000" stroke-width="6" stroke-miterlimit="10" d="M-71586.617,13436.836l-1.555,0.027l-2.359,0.039
		l-0.008,3.018l-0.008,2.025l0.016,1.607l0.047,4.816l0.008,1.605l1.508,0.012l4.5,0.035l1.5,0.012l0.047-0.008l0.133-0.025
		l0.047-0.008l2.609-0.01l2.805-0.01l-0.086-6.531l-0.055-3.393l0.062-2.652l0.016-0.588l-4.562,0.027l-1.109,0.008l-2.039,0.012
		l-0.305-0.004l-0.906-0.012L-71586.617,13436.836z M116843.648-125083.703v20539.055v27750v27822.543v28115.805V8484.392v19126.953
		v16127.992V59867.32v19126.961v29340.688v17908.719h-242007.344v-251327.391H116843.648z"/>
	<path fill="none" stroke="#FF0000" stroke-width="6" stroke-miterlimit="10" d="M-61325.098,14716.35l-0.621-0.057l-0.137,0.027
		l-0.219,0.086l-0.281,0.148l-0.297,0.184l-0.273,0.205l-0.441,0.432l-0.113,0.043l-0.031,0.074l-0.281,0.664l-0.223,0.658
		l0.027,0.611l-0.66,0.617l-0.664,0.824l-0.051,0.064l-0.016,0.02l-0.297,0.369l-0.023,0.031l-0.055,0.066l0.375,0.309l-0.199,0.279
		l0.074,0.17l-0.113,0.457h-0.328v-0.09l-0.426-0.117v0.473l-0.422-0.137l-0.555-0.182l-0.301-0.084l-0.254-0.07l0.008,0.355
		l0.008,0.238l0.012,0.172l-0.789,0.02h-0.062l0.207-0.725l-0.254-0.021l-0.246,0.121l-0.285,0.195h-0.699l0.023-0.723l0.031-0.812
		l0.199-0.793l0.055-0.205l0.008-0.033l0.348-1.246l0.09-0.371l0.168-0.691l0.148-0.785v-0.012l-0.004-0.094l-0.004-0.082
		l-0.004-0.113l-0.02-0.438l0.695-0.023l0.168,0.055l0.301,0.029l0.277,0.037l0.227,0.062l0.348-0.582l0.07-0.645l0.023-0.242
		l0.074-0.699l0.113-0.09l0.109-0.105l0.109-0.117l0.113-0.137l0.117-0.178l0.102-0.184l0.082-0.174l0.07-0.193l0.051-0.188
		l0.031-0.174l0.023-0.188l0.008-0.172l-0.012-0.234l-0.082-0.518l-0.184-1.461v-1.959l-0.004-1.078l-1.094-0.566l-0.727-0.258
		l-0.648-0.121l0.02-0.789h0.434l0.32-0.926l-0.695-0.191l-0.863,1.855l-0.297-0.223l-1.332-0.953l-4.977-0.334l-0.934,0.936
		l0.203,1.166l-1.184,1.279l-0.012,0.762l0.078,1.523l-0.008,0.285l-0.004,0.145l4.215,2.861l0.027,0.045l1.621,2.691l0.625-0.566
		l0.066,0.098l0.094,0.131l0.672-0.57l-0.078-0.117l0.441-0.418l0.844,0.605l0.004,0.139l0.047,0.902l-0.008,0.064l-0.016,0.154
		l-0.004,0.051l-0.055,0.471l-0.051,0.463l-0.227,1.059l-0.422,1.438l-0.191,0.719l-0.004,0.047l-0.051,0.811v0.807l-0.109-0.043
		h-0.324l-0.207,0.297l-0.246-0.133l-0.465-0.254l-1.008-0.473l-0.113,0.07l0.027-0.111l-0.719-0.475l-0.633-0.379l-0.312-0.223
		l-0.211-0.254l-0.102,0.082l-0.203,1.355l-2.477,4.191l0.309,0.215l-0.195,0.336l0.102,0.057l0.07,0.045l0.32,0.18l0.184,0.121
		l0.184,0.117l0.059,0.035l-0.281,0.178l-0.398,0.676l-0.566,0.955l-1.352,2.283l-0.586,0.99l-0.297,0.504l0.285,0.098l2.668,0.77
		l0.297,0.043l0.164,0.062l0.133,0.082l0.078,0.018l0.133,0.01l0.23,0.072l0.156,0.057l0.098,0.074l0.008,0.037l0.188,1.006
		l0.23,0.822l-0.125,0.17l-0.504,0.719l0.059,0.039l0.199,0.152l0.434,0.34l0.039,0.029l0.949,0.709l1.152,0.865l-0.234,0.299
		l-0.258,0.346l-0.262,0.338l-0.336,0.434l-0.453,0.582l0.172,0.354l-0.398,0.572l-0.281-0.277l-0.102-0.104l-0.984,1.607
		l-0.379,0.682l3.855,1.959l0.879-2.029l1.918,0.717l0.152-1.094l0.023-0.16l0.105-0.641l0.02-0.105l0.105-0.371l0.074-0.219
		l0.078-0.234l0.082-0.225l0.16-0.361l0.082-0.164l0.137,0.027l0.098,0.02l0.422,0.15l0.105,0.025l0.246,0.09l0.141,0.035
		l0.086,0.023l0.211,0.031l0.332,0.012l0.258,0.027l0.098,0.014l0.133,0.023l0.203,0.074l0.141,0.049l0.113,0.074l0.207,0.133
		l0.172,0.125l0.18,0.102l0.156,0.066l0.812-0.992l0.105,0.133l0.141-0.156l0.305,0.291l0.484,0.162h0.605l0.672-0.162l1.094-0.123
		l0.02,0.289l1.062-0.217l0.062-0.049l0.105-0.086l0.062-0.051l0.238-0.197l0.074-0.057l0.309-0.254l0.348-0.285l-0.188-0.281
		l0.109-0.137l0.102,0.129l0.215-0.074l-0.031-0.242l0.168-0.127l0.055-0.018l0.152-0.021l0.137,0.27l0.266-0.328l-0.004-0.955
		l-0.547,0.004l-0.047,0.111l-0.07,0.166l-0.004-0.172l0.008-0.105l0.008-0.805l0.004-0.295l0.516-0.752l-0.547-0.395l0.059-1.426
		l0.004-0.082l0.02-0.543l0.016-0.332l-0.129-0.066l0.016-0.195l3.008-3.01l0.824-0.355l0.117,0.021l0.52-0.01l0.297-0.287
		l-0.219-0.195l-0.359-0.354l-0.176-0.33l-0.371-0.662l-0.168-0.258l-0.211-0.537l-0.047-0.121v-0.309l0.008-0.688l-0.008-0.254
		v-0.152l-0.008-0.129l0.016-0.078l-0.008-0.055l-0.035-0.037l-0.07-0.021l-0.062-0.023l-0.051-0.02l-0.043-0.055l-0.199-0.125
		l-0.266-0.16l-0.195-0.109l-0.117,0.148l-0.211-0.752l-0.027-0.037l-0.027-0.016l-0.035-0.012l-0.242,0.004l-0.254-0.02
		l-0.219-0.008l-0.164,0.004l-2.094-2.602l0.293-0.152l-0.582-1.42l0.641-0.303l0.453-0.227l0.328-0.176l1.855-0.85l-0.191-0.484
		l0.613-0.264l0.559-0.25l0.242,0.527l0.297,0.496l0.059,0.027l0.77-0.352l1.129-0.492l0.926-0.857l-0.078-0.816l1.383-0.451
		l1.215-0.473l0.117,0.26l0.957,3.193l0.062,0.24l0.027,0.09l-0.613,0.184l-0.773,0.236l-0.41,0.127l0.344,1.545l0.867-0.141
		l0.344-0.055l0.367-0.074l0.078-0.016l0.105-0.023l0.133-0.023l0.172-0.039l0.129-0.031l0.172-0.039l0.477-0.125l0.156-0.049
		l-0.02-0.146l-0.012-0.195v-0.195l0.008-0.07v-0.223l0.004-0.168l0.012-0.141l0.004-0.059l0.023-0.557l-0.027-0.365v-0.023
		l-0.031-0.207l-0.098-0.355l-0.316-0.988l-0.078-0.246l-0.281-0.891l-0.082-0.191l-0.051-0.098l0.352-0.174l-0.395-0.807
		l-0.254,0.102l-0.094-0.168l-1.336,0.523l-1.375,0.551l-1.113,0.363l-0.574,0.125l-0.52,0.105l-0.438,0.074l-0.406,0.047
		l-0.402,0.035l-0.367,0.02l-0.43,0.02l-0.434,0.002l-0.43-0.014l-0.367-0.021l-0.559-0.055v0.209l0.395,0.525l0.391,0.838
		l-0.188,0.094l-0.309,0.129l-0.023,0.012l-0.09,0.047l-0.223,0.117l-0.277,0.125l-0.051-0.121l-0.207-0.459l-0.34,0.166
		l-0.395,0.195l-0.605,0.27l-0.082,0.035l-0.32,0.16l-0.195,0.1l0.266,0.502l-0.277,0.113l-0.277,0.125l-0.273,0.148l-0.035-0.066
		l-0.207-0.375l-0.434,0.227l-0.637-1.363l-0.047-0.117l-0.59-0.355l0.504-1.148L-61325.098,14716.35z M116843.648-125083.703
		v20539.055v27750v27822.543v28115.805V8484.392v19126.953v16127.992V59867.32v19126.961v29340.688v17908.719h-242007.344
		v-251327.391H116843.648z"/>
	<path fill="none" stroke="#FF0000" stroke-width="6" stroke-miterlimit="10" d="M-58473.727,8948.07l-0.598,0.027l-5.398,0.027
		l-2.957,0.055l-14.043,0.258l-4.543,0.102l-0.262,0.002l-0.281,0.002l-0.285,0.002l-4.859,0.096l-21.016,0.383l-5.156,0.096
		l-4.199,0.076l-14.566,0.268l-0.07,0.002h-0.07l-0.125,0.006l-1.848,0.068l-0.289,0.004l-7.109,0.645l-3.699,0.125l-0.305,0.018
		l-0.422,0.016l-0.051,0.006l-9.129,0.309l-12.016,0.299l-1.508,0.051l-0.082-0.002l-0.109,0.004l-8.562,0.145l-28.488,0.404
		l-10.25,0.154l-0.684,0.023l-3.613,9.645l-0.863,2.312l-3.941,11.148l-0.238,1.018l-0.312,1.92l-0.07,0.158l-0.504,1.604
		l-0.484,1.014l-2.203,5.666l-0.52,1.391l-1.504,4.041l-3.562,9.562l-1.301,3.482l-9.344,24.965l6.176-0.219l10.152-0.359
		l7.852-0.281l13.531-0.488l1.941-0.066l2.188-0.008l14.027-0.51l3.594-0.139l0.379-0.012l1.902-0.072l2.828-0.107l39.57-1.195
		l21.434-0.508l3.805-0.086l1.148-0.023l5.074-0.129l0.738-0.012l1.836-0.025l1.609-0.021l3.105-0.041h0.91h0.352l0.645-0.004
		l0.133,0.018h0.152l0.645-0.006l0.582-0.027l0.543-0.021l0.184-0.002l1.211-0.045l0.082-0.012l0.539-0.014l1.637-0.039l0.395-0.01
		l1.383-0.023l0.395-0.02l0.836-0.02l9.18-0.152l1.957-0.031l0.41-1.191l0.766-2.217l0.016-0.045l0.016-0.043l0.082-0.234
		l0.031-0.082l3.773-10.885l0.344-0.994l0.516-1.422l0.387-1.078l0.055-0.146l3.148-8.721l0.695-1.91l0.582-1.592l0.676-2.1
		l0.055-0.178l0.105-0.305l2.016-5.916l3.125-9.156l0.305-0.891l2.297-6.693l1.145-3.338l0.031-0.098l2.785-8.135l2.836-8.295
		L-58473.727,8948.07z M116843.648-125083.703v20539.055v27750v27822.543v28115.805V8484.392v19126.953v16127.992V59867.32
		v19126.961v29340.688v17908.719h-242007.344v-251327.391H116843.648z"/>
	<path fill="none" stroke="#FF0000" stroke-width="6" stroke-miterlimit="10" d="M-61115.68,13419.707l-0.977-0.75l-0.07-0.051
		l-0.242-0.189l-0.738-0.572l-1.305-1.004l-0.703-0.525l-0.047-0.029l-0.023-0.023l-1.637-1.225l-0.938-0.732l-0.047-0.033
		l-0.012-0.014l-0.648-0.506l-0.668-0.514l0.57-0.738l0.359-0.471l0.121-0.154l0.184-0.012l0.168-0.045l0.883-0.252l-0.535-0.383
		l-0.504-0.414l-0.84-0.688l-2.609-1.969l-0.059,0.064l-0.457,0.506l-0.039,0.047l-0.055,0.061l-0.672-0.592l-0.621-0.578
		l-0.68-0.609l-0.203-0.184l-0.195-0.176l-0.25-0.223l0.035-0.066l0.059-0.031l0.27-0.262l0.609-0.596l0.312-0.307l0.32-0.312
		l0.215-0.211l0.113-0.107l-0.16-0.014l-3.098-0.504l0.102-0.23l0.055-0.102l0.027-0.055l-1.348-0.219l-0.574-0.1l-0.375-0.082
		l-0.039,0.014l-0.043,0.027l-0.062,0.059l-0.066,0.109l-0.02,0.059v0.047l0.016,0.088l0.031,0.078l0.043,0.047l0.137,0.334
		l-0.062,0.574l-0.09,0.664l-0.113,0.785l-0.012,0.07l-0.012,0.064l-0.207-0.162l-1.312-0.988l-1.176-0.887l-0.246-0.215
		l-2.465-1.887l-1.555-1.184l-0.898-0.666l-0.238-0.166l-0.41-0.258l-0.328-0.191l-0.555-0.312l-0.711-0.324l-0.812-0.33
		l-0.883-0.334l-2.637-1.021l-0.625-0.232l-0.91-0.377l-0.758-0.293l-0.289-0.088l-0.055,0.312l-0.035,0.199l-1.07,1.422
		l-1.297,1.727l-0.891,0.98l-0.301,0.336l-0.324,0.355l-0.09,0.1l-1.918,2.285l-0.383,0.848l0.145,0.188l0.188,0.23l0.68,0.697
		l1.113,1.121l0.113,0.117l1.324,1.336l0.145,0.145l0.211,0.213l0.629,0.639l0.895,0.965l2.164,2.379l0.512,0.57l1.172,1.289
		l0.406,0.426l0.613,0.645l1.113,1.162l1.348,1.428l1.457,1.527l0.621,0.646l1.184,1.225l0.047,0.051l0.23,0.24l0.617,0.645
		l1.289,1.367l0.324,0.346l0.07,0.074l2.902-1.129l0.996,0.473l1.754,0.836l0.887,0.422l0.734,0.781l0.75,0.494l4.207-0.529
		l3.66-0.383l0.348-0.047l0.484-0.068l1.113-0.158l0.422,0.697l0.074-0.135l0.191-0.348l0.129-0.225l0.199-0.365l0.246-0.443
		l0.301-0.506l0.125-0.035h0.074l0.117-0.02l-0.066-0.199l-0.008-0.086l0.035-0.113l0.305-0.539l0.633-1.164l0.074-0.123
		l0.074-0.131l0.949-1.609l0.215-0.391L-61115.68,13419.707z M116843.648-125083.703v20539.055v27750v27822.543v28115.805V8484.392
		v19126.953v16127.992V59867.32v19126.961v29340.688v17908.719h-242007.344v-251327.391H116843.648z"/>
	<path fill="none" stroke="#FF0000" stroke-width="6" stroke-miterlimit="10" d="M-77582.258,7108.467l7.234-0.097v-0.08
		l0.016-0.361l0.016-0.241l0.008-0.215l0.008-0.018l0.078-0.191l-0.008-0.885l-0.008-0.485l-0.047-0.573l-0.039-0.898h-1.086
		l-0.008-0.191l-0.758,0.007l0.023,1.098l-0.148,0.001l-0.562,0.004l-0.484,0.002h-0.234l-0.625,0.002l-1.242,0.025l0.008,0.453
		l-0.008,0.57v0.258v0.271l-2.125-0.063v0.555v0.321v0.202l-0.008,0.243V7108.467z M116843.648-125083.703v20539.055v27750
		v27822.543v28115.805V8484.392v19126.953v16127.992V59867.32v19126.961v29340.688v17908.719h-242007.344v-251327.391H116843.648z"
		/>
	<path fill="none" stroke="#FF0000" stroke-width="6" stroke-miterlimit="10" d="M-63942.934,13297.965l3.469,0.641l1.816-0.152
		l1.629,0.965l0.199,0.83l0.34,0.404l0.77-0.855l2.895,0.918l0.176-1.332l-0.012-1.059l2.477,0.107l0.449-2.393l0.102-0.848
		l-1.398-0.201l-0.016-0.471l0.547-0.559l-1.191-0.869l0.418-2.205l0.09-0.777l-2.023-0.152l-1.648,0.074l-7.773-0.465l-3.992-0.336
		l-0.945,3.629l-0.117,0.98l-1.02,0.602l-0.191,0.176l-0.008,0.531l-0.434,0.979l0.59,0.264l-0.285,0.418l0.316,0.152l-0.867,1.223
		l0.715,0.391l0.766-0.988l3.57,0.766L-63942.934,13297.965z M116843.648-125083.703v20539.055v27750v27822.543v28115.805V8484.392
		v19126.953v16127.992V59867.32v19126.961v29340.688v17908.719h-242007.344v-251327.391H116843.648z"/>
	<path fill="none" stroke="#FF0000" stroke-width="6" stroke-miterlimit="10" d="M-58808.551,11026.602l-3.426-3.209l19.488-15.477
		l-16.707-10.039l-14.18-8.627l-4.145-2.535l-21.113-8.314l-5.184,22.424l-5.922-1.457l-1.559,6.57l5.719,2.344l-2.734,10.949
		l-2.344,9.336l1.051,0.285l29.641,6.109l6.566,7.414l10.133-6.961l2.164-3.436L-58808.551,11026.602z M116843.648-125083.703
		v20539.055v27750v27822.543v28115.805V8484.392v19126.953v16127.992V59867.32v19126.961v29340.688v17908.719h-242007.344
		v-251327.391H116843.648z"/>
</g>
</svg>
