<?xml version="1.0" encoding="utf-8"?>
<!-- Generator: Adobe Illustrator 16.0.0, SVG Export Plug-In . SVG Version: 6.00 Build 0)  -->
<!DOCTYPE svg PUBLIC "-//W3C//DTD SVG 1.1//EN" "http://www.w3.org/Graphics/SVG/1.1/DTD/svg11.dtd">
<svg version="1.1" id="Ebene_1" xmlns="http://www.w3.org/2000/svg" xmlns:xlink="http://www.w3.org/1999/xlink" x="0px" y="0px"
	 width="3401.574px" height="2551.181px" viewBox="0 0 3401.574 2551.181" enable-background="new 0 0 3401.574 2551.181"
	 xml:space="preserve">
<polyline fill="none" stroke="#000000" stroke-miterlimit="10" points="1321.167,1651.925 1322.41,1650.683 1323.031,1648.821 
	1323.031,1646.339 1322.41,1644.478 1321.167,1643.235 1319.927,1643.235 1318.685,1643.856 1318.064,1644.478 1317.444,1645.718 
	1316.203,1649.442 1315.582,1650.683 1314.96,1651.306 1313.72,1651.925 1311.857,1651.925 1310.617,1650.683 1309.996,1648.821 
	1309.996,1646.339 1310.617,1644.478 1311.857,1643.235 "/>
<polyline fill="none" stroke="#000000" stroke-miterlimit="10" points="1314.96,1655.649 1314.96,1663.099 1316.203,1663.099 
	1317.444,1662.478 1318.064,1661.856 1318.685,1660.614 1318.685,1658.753 1318.064,1657.511 1316.824,1656.271 1314.96,1655.649 
	1313.72,1655.649 1311.857,1656.271 1310.617,1657.511 1309.996,1658.753 1309.996,1660.614 1310.617,1661.856 1311.857,1663.099 
	"/>
<line fill="none" stroke="#000000" stroke-miterlimit="10" x1="1323.031" y1="1667.442" x2="1309.996" y2="1667.442"/>
<polyline fill="none" stroke="#000000" stroke-miterlimit="10" points="1316.824,1667.442 1318.064,1668.683 1318.685,1669.925 
	1318.685,1671.788 1318.064,1673.028 1316.824,1674.271 1314.96,1674.89 1313.72,1674.89 1311.857,1674.271 1310.617,1673.028 
	1309.996,1671.788 1309.996,1669.925 1310.617,1668.683 1311.857,1667.442 "/>
<line fill="none" stroke="#000000" stroke-miterlimit="10" x1="1318.685" y1="1686.063" x2="1309.996" y2="1686.063"/>
<polyline fill="none" stroke="#000000" stroke-miterlimit="10" points="1316.824,1686.063 1318.064,1684.821 1318.685,1683.581 
	1318.685,1681.718 1318.064,1680.478 1316.824,1679.235 1314.96,1678.614 1313.72,1678.614 1311.857,1679.235 1310.617,1680.478 
	1309.996,1681.718 1309.996,1683.581 1310.617,1684.821 1311.857,1686.063 "/>
<polyline fill="none" stroke="#000000" stroke-miterlimit="10" points="1316.824,1697.235 1318.064,1696.614 1318.685,1694.753 
	1318.685,1692.89 1318.064,1691.028 1316.824,1690.409 1315.582,1691.028 1314.96,1692.271 1314.34,1695.374 1313.72,1696.614 
	1312.478,1697.235 1311.857,1697.235 1310.617,1696.614 1309.996,1694.753 1309.996,1692.89 1310.617,1691.028 1311.857,1690.409 
	"/>
<polyline fill="none" stroke="#000000" stroke-miterlimit="10" points="1323.031,1702.202 1312.478,1702.202 1310.617,1702.821 
	1309.996,1704.063 1309.996,1705.306 "/>
<line fill="none" stroke="#000000" stroke-miterlimit="10" x1="1318.685" y1="1700.339" x2="1318.685" y2="1704.683"/>
<polyline fill="none" stroke="#000000" stroke-miterlimit="10" points="1323.031,1708.409 1322.41,1709.028 1323.031,1709.649 
	1323.65,1709.028 1323.031,1708.409 "/>
<line fill="none" stroke="#000000" stroke-miterlimit="10" x1="1318.685" y1="1709.028" x2="1309.996" y2="1709.028"/>
<line fill="none" stroke="#000000" stroke-miterlimit="10" x1="1318.685" y1="1720.821" x2="1309.996" y2="1720.821"/>
<polyline fill="none" stroke="#000000" stroke-miterlimit="10" points="1316.824,1720.821 1318.064,1719.581 1318.685,1718.339 
	1318.685,1716.478 1318.064,1715.235 1316.824,1713.995 1314.96,1713.374 1313.72,1713.374 1311.857,1713.995 1310.617,1715.235 
	1309.996,1716.478 1309.996,1718.339 1310.617,1719.581 1311.857,1720.821 "/>
<line fill="none" stroke="#000000" stroke-miterlimit="10" x1="1318.685" y1="1725.788" x2="1309.996" y2="1725.788"/>
<polyline fill="none" stroke="#000000" stroke-miterlimit="10" points="1316.203,1725.788 1318.064,1727.649 1318.685,1728.89 
	1318.685,1730.753 1318.064,1731.995 1316.203,1732.614 1309.996,1732.614 "/>
<line fill="none" stroke="#000000" stroke-miterlimit="10" x1="1323.031" y1="1747.511" x2="1309.996" y2="1747.511"/>
<line fill="none" stroke="#000000" stroke-miterlimit="10" x1="1323.031" y1="1747.511" x2="1309.996" y2="1752.478"/>
<line fill="none" stroke="#000000" stroke-miterlimit="10" x1="1323.031" y1="1757.442" x2="1309.996" y2="1752.478"/>
<line fill="none" stroke="#000000" stroke-miterlimit="10" x1="1323.031" y1="1757.442" x2="1309.996" y2="1757.442"/>
<polyline fill="none" stroke="#000000" stroke-miterlimit="10" points="1314.96,1761.788 1314.96,1769.235 1316.203,1769.235 
	1317.444,1768.614 1318.064,1767.995 1318.685,1766.753 1318.685,1764.89 1318.064,1763.649 1316.824,1762.409 1314.96,1761.788 
	1313.72,1761.788 1311.857,1762.409 1310.617,1763.649 1309.996,1764.89 1309.996,1766.753 1310.617,1767.995 1311.857,1769.235 "/>
<polyline fill="none" stroke="#000000" stroke-miterlimit="10" points="1323.031,1772.96 1322.41,1773.581 1323.031,1774.202 
	1323.65,1773.581 1323.031,1772.96 "/>
<line fill="none" stroke="#000000" stroke-miterlimit="10" x1="1318.685" y1="1773.581" x2="1309.996" y2="1773.581"/>
<polyline fill="none" stroke="#000000" stroke-miterlimit="10" points="1314.96,1777.925 1314.96,1785.374 1316.203,1785.374 
	1317.444,1784.753 1318.064,1784.132 1318.685,1782.89 1318.685,1781.028 1318.064,1779.788 1316.824,1778.546 1314.96,1777.925 
	1313.72,1777.925 1311.857,1778.546 1310.617,1779.788 1309.996,1781.028 1309.996,1782.89 1310.617,1784.132 1311.857,1785.374 "/>
<line fill="none" stroke="#000000" stroke-miterlimit="10" x1="1318.685" y1="1789.718" x2="1309.996" y2="1789.718"/>
<polyline fill="none" stroke="#000000" stroke-miterlimit="10" points="1314.96,1789.718 1316.824,1790.339 1318.064,1791.581 
	1318.685,1792.821 1318.685,1794.683 "/>
<polyline fill="none" stroke="#000000" stroke-miterlimit="10" points="1318.064,1816.409 1319.306,1815.788 1319.927,1814.546 
	1319.927,1812.683 1319.306,1811.442 1318.685,1810.821 1316.824,1810.202 1314.96,1810.202 1313.72,1810.821 1313.099,1812.063 
	1313.099,1813.925 1313.72,1815.167 1314.96,1815.788 "/>
<polyline fill="none" stroke="#000000" stroke-miterlimit="10" points="1319.927,1812.683 1318.685,1811.442 1316.824,1810.821 
	1314.96,1810.821 1313.72,1811.442 1313.099,1812.063 "/>
<polyline fill="none" stroke="#000000" stroke-miterlimit="10" points="1319.927,1816.409 1314.96,1815.788 1313.72,1815.788 
	1313.099,1817.028 1313.099,1818.271 1314.34,1819.511 1316.203,1820.132 1317.444,1820.132 1319.306,1819.511 1320.547,1818.89 
	1321.789,1817.649 1322.41,1816.409 1323.031,1814.546 1323.031,1812.683 1322.41,1810.821 1321.789,1809.581 1320.547,1808.339 
	1319.306,1807.718 1317.444,1807.099 1315.582,1807.099 1313.72,1807.718 1312.478,1808.339 1311.237,1809.581 1310.617,1810.821 
	1309.996,1812.683 1309.996,1814.546 1310.617,1816.409 1311.237,1817.649 1311.857,1818.271 "/>
<polyline fill="none" stroke="#000000" stroke-miterlimit="10" points="1319.927,1817.028 1314.96,1816.409 1313.72,1816.409 
	1313.099,1817.028 "/>
<polyline fill="none" stroke="#000000" stroke-miterlimit="10" points="1316.824,1830.685 1318.064,1830.063 1318.685,1828.202 
	1318.685,1826.339 1318.064,1824.478 1316.824,1823.856 1315.582,1824.478 1314.96,1825.718 1314.34,1828.821 1313.72,1830.063 
	1312.478,1830.685 1311.857,1830.685 1310.617,1830.063 1309.996,1828.202 1309.996,1826.339 1310.617,1824.478 1311.857,1823.856 
	"/>
<polyline fill="none" stroke="#000000" stroke-miterlimit="10" points="1314.96,1834.409 1314.96,1841.856 1316.203,1841.856 
	1317.444,1841.235 1318.064,1840.614 1318.685,1839.374 1318.685,1837.511 1318.064,1836.271 1316.824,1835.028 1314.96,1834.409 
	1313.72,1834.409 1311.857,1835.028 1310.617,1836.271 1309.996,1837.511 1309.996,1839.374 1310.617,1840.614 1311.857,1841.856 
	"/>
<line fill="none" stroke="#000000" stroke-miterlimit="10" x1="1323.031" y1="1846.2" x2="1309.996" y2="1846.2"/>
<polyline fill="none" stroke="#000000" stroke-miterlimit="10" points="1316.824,1846.2 1318.064,1847.442 1318.685,1848.685 
	1318.685,1850.546 1318.064,1851.788 1316.824,1853.028 1314.96,1853.649 1313.72,1853.649 1311.857,1853.028 1310.617,1851.788 
	1309.996,1850.546 1309.996,1848.685 1310.617,1847.442 1311.857,1846.2 "/>
<line fill="none" stroke="#000000" stroke-miterlimit="10" x1="1308.753" y1="1855.511" x2="1308.753" y2="1865.442"/>
<line fill="none" stroke="#000000" stroke-miterlimit="10" x1="1318.685" y1="1867.925" x2="1309.996" y2="1867.925"/>
<polyline fill="none" stroke="#000000" stroke-miterlimit="10" points="1316.203,1867.925 1318.064,1869.788 1318.685,1871.028 
	1318.685,1872.892 1318.064,1874.132 1316.203,1874.753 1309.996,1874.753 "/>
<polyline fill="none" stroke="#000000" stroke-miterlimit="10" points="1316.203,1874.753 1318.064,1876.614 1318.685,1877.856 
	1318.685,1879.718 1318.064,1880.96 1316.203,1881.581 1309.996,1881.581 "/>
<polyline fill="none" stroke="#000000" stroke-miterlimit="10" points="1314.96,1885.925 1314.96,1893.374 1316.203,1893.374 
	1317.444,1892.753 1318.064,1892.132 1318.685,1890.892 1318.685,1889.028 1318.064,1887.788 1316.824,1886.546 1314.96,1885.925 
	1313.72,1885.925 1311.857,1886.546 1310.617,1887.788 1309.996,1889.028 1309.996,1890.892 1310.617,1892.132 1311.857,1893.374 
	"/>
<polyline fill="none" stroke="#000000" stroke-miterlimit="10" points="1323.031,1897.099 1322.41,1897.718 1323.031,1898.339 
	1323.65,1897.718 1323.031,1897.099 "/>
<line fill="none" stroke="#000000" stroke-miterlimit="10" x1="1318.685" y1="1897.718" x2="1309.996" y2="1897.718"/>
<polyline fill="none" stroke="#000000" stroke-miterlimit="10" points="1314.96,1902.063 1314.96,1909.511 1316.203,1909.511 
	1317.444,1908.892 1318.064,1908.269 1318.685,1907.028 1318.685,1905.167 1318.064,1903.925 1316.824,1902.685 1314.96,1902.063 
	1313.72,1902.063 1311.857,1902.685 1310.617,1903.925 1309.996,1905.167 1309.996,1907.028 1310.617,1908.269 1311.857,1909.511 
	"/>
<line fill="none" stroke="#000000" stroke-miterlimit="10" x1="1318.685" y1="1913.856" x2="1309.996" y2="1913.856"/>
<polyline fill="none" stroke="#000000" stroke-miterlimit="10" points="1314.96,1913.856 1316.824,1914.478 1318.064,1915.718 
	1318.685,1916.96 1318.685,1918.821 "/>
<polyline fill="none" stroke="#000000" stroke-miterlimit="10" points="1321.167,1651.925 1322.41,1650.683 1323.031,1648.821 
	1323.031,1646.339 1322.41,1644.478 1321.167,1643.235 1319.927,1643.235 1318.685,1643.856 1318.064,1644.478 1317.444,1645.718 
	1316.203,1649.442 1315.582,1650.683 1314.96,1651.306 1313.72,1651.925 1311.857,1651.925 1310.617,1650.683 1309.996,1648.821 
	1309.996,1646.339 1310.617,1644.478 1311.857,1643.235 "/>
<polyline fill="none" stroke="#000000" stroke-miterlimit="10" points="1314.96,1655.649 1314.96,1663.099 1316.203,1663.099 
	1317.444,1662.478 1318.064,1661.856 1318.685,1660.614 1318.685,1658.753 1318.064,1657.511 1316.824,1656.271 1314.96,1655.649 
	1313.72,1655.649 1311.857,1656.271 1310.617,1657.511 1309.996,1658.753 1309.996,1660.614 1310.617,1661.856 1311.857,1663.099 
	"/>
<line fill="none" stroke="#000000" stroke-miterlimit="10" x1="1323.031" y1="1667.442" x2="1309.996" y2="1667.442"/>
<polyline fill="none" stroke="#000000" stroke-miterlimit="10" points="1316.824,1667.442 1318.064,1668.683 1318.685,1669.925 
	1318.685,1671.788 1318.064,1673.028 1316.824,1674.271 1314.96,1674.89 1313.72,1674.89 1311.857,1674.271 1310.617,1673.028 
	1309.996,1671.788 1309.996,1669.925 1310.617,1668.683 1311.857,1667.442 "/>
<line fill="none" stroke="#000000" stroke-miterlimit="10" x1="1318.685" y1="1686.063" x2="1309.996" y2="1686.063"/>
<polyline fill="none" stroke="#000000" stroke-miterlimit="10" points="1316.824,1686.063 1318.064,1684.821 1318.685,1683.581 
	1318.685,1681.718 1318.064,1680.478 1316.824,1679.235 1314.96,1678.614 1313.72,1678.614 1311.857,1679.235 1310.617,1680.478 
	1309.996,1681.718 1309.996,1683.581 1310.617,1684.821 1311.857,1686.063 "/>
<polyline fill="none" stroke="#000000" stroke-miterlimit="10" points="1316.824,1697.235 1318.064,1696.614 1318.685,1694.753 
	1318.685,1692.89 1318.064,1691.028 1316.824,1690.409 1315.582,1691.028 1314.96,1692.271 1314.34,1695.374 1313.72,1696.614 
	1312.478,1697.235 1311.857,1697.235 1310.617,1696.614 1309.996,1694.753 1309.996,1692.89 1310.617,1691.028 1311.857,1690.409 
	"/>
<polyline fill="none" stroke="#000000" stroke-miterlimit="10" points="1323.031,1702.202 1312.478,1702.202 1310.617,1702.821 
	1309.996,1704.063 1309.996,1705.306 "/>
<line fill="none" stroke="#000000" stroke-miterlimit="10" x1="1318.685" y1="1700.339" x2="1318.685" y2="1704.683"/>
<polyline fill="none" stroke="#000000" stroke-miterlimit="10" points="1323.031,1708.409 1322.41,1709.028 1323.031,1709.649 
	1323.65,1709.028 1323.031,1708.409 "/>
<line fill="none" stroke="#000000" stroke-miterlimit="10" x1="1318.685" y1="1709.028" x2="1309.996" y2="1709.028"/>
<line fill="none" stroke="#000000" stroke-miterlimit="10" x1="1318.685" y1="1720.821" x2="1309.996" y2="1720.821"/>
<polyline fill="none" stroke="#000000" stroke-miterlimit="10" points="1316.824,1720.821 1318.064,1719.581 1318.685,1718.339 
	1318.685,1716.478 1318.064,1715.235 1316.824,1713.995 1314.96,1713.374 1313.72,1713.374 1311.857,1713.995 1310.617,1715.235 
	1309.996,1716.478 1309.996,1718.339 1310.617,1719.581 1311.857,1720.821 "/>
<line fill="none" stroke="#000000" stroke-miterlimit="10" x1="1318.685" y1="1725.788" x2="1309.996" y2="1725.788"/>
<polyline fill="none" stroke="#000000" stroke-miterlimit="10" points="1316.203,1725.788 1318.064,1727.649 1318.685,1728.89 
	1318.685,1730.753 1318.064,1731.995 1316.203,1732.614 1309.996,1732.614 "/>
<line fill="none" stroke="#000000" stroke-miterlimit="10" x1="1323.031" y1="1747.511" x2="1309.996" y2="1747.511"/>
<line fill="none" stroke="#000000" stroke-miterlimit="10" x1="1323.031" y1="1747.511" x2="1309.996" y2="1752.478"/>
<line fill="none" stroke="#000000" stroke-miterlimit="10" x1="1323.031" y1="1757.442" x2="1309.996" y2="1752.478"/>
<line fill="none" stroke="#000000" stroke-miterlimit="10" x1="1323.031" y1="1757.442" x2="1309.996" y2="1757.442"/>
<polyline fill="none" stroke="#000000" stroke-miterlimit="10" points="1314.96,1761.788 1314.96,1769.235 1316.203,1769.235 
	1317.444,1768.614 1318.064,1767.995 1318.685,1766.753 1318.685,1764.89 1318.064,1763.649 1316.824,1762.409 1314.96,1761.788 
	1313.72,1761.788 1311.857,1762.409 1310.617,1763.649 1309.996,1764.89 1309.996,1766.753 1310.617,1767.995 1311.857,1769.235 "/>
<polyline fill="none" stroke="#000000" stroke-miterlimit="10" points="1323.031,1772.96 1322.41,1773.581 1323.031,1774.202 
	1323.65,1773.581 1323.031,1772.96 "/>
<line fill="none" stroke="#000000" stroke-miterlimit="10" x1="1318.685" y1="1773.581" x2="1309.996" y2="1773.581"/>
<polyline fill="none" stroke="#000000" stroke-miterlimit="10" points="1314.96,1777.925 1314.96,1785.374 1316.203,1785.374 
	1317.444,1784.753 1318.064,1784.132 1318.685,1782.89 1318.685,1781.028 1318.064,1779.788 1316.824,1778.546 1314.96,1777.925 
	1313.72,1777.925 1311.857,1778.546 1310.617,1779.788 1309.996,1781.028 1309.996,1782.89 1310.617,1784.132 1311.857,1785.374 "/>
<line fill="none" stroke="#000000" stroke-miterlimit="10" x1="1318.685" y1="1789.718" x2="1309.996" y2="1789.718"/>
<polyline fill="none" stroke="#000000" stroke-miterlimit="10" points="1314.96,1789.718 1316.824,1790.339 1318.064,1791.581 
	1318.685,1792.821 1318.685,1794.683 "/>
<polyline fill="none" stroke="#000000" stroke-miterlimit="10" points="1318.064,1816.409 1319.306,1815.788 1319.927,1814.546 
	1319.927,1812.683 1319.306,1811.442 1318.685,1810.821 1316.824,1810.202 1314.96,1810.202 1313.72,1810.821 1313.099,1812.063 
	1313.099,1813.925 1313.72,1815.167 1314.96,1815.788 "/>
<polyline fill="none" stroke="#000000" stroke-miterlimit="10" points="1319.927,1812.683 1318.685,1811.442 1316.824,1810.821 
	1314.96,1810.821 1313.72,1811.442 1313.099,1812.063 "/>
<polyline fill="none" stroke="#000000" stroke-miterlimit="10" points="1319.927,1816.409 1314.96,1815.788 1313.72,1815.788 
	1313.099,1817.028 1313.099,1818.271 1314.34,1819.511 1316.203,1820.132 1317.444,1820.132 1319.306,1819.511 1320.547,1818.89 
	1321.789,1817.649 1322.41,1816.409 1323.031,1814.546 1323.031,1812.683 1322.41,1810.821 1321.789,1809.581 1320.547,1808.339 
	1319.306,1807.718 1317.444,1807.099 1315.582,1807.099 1313.72,1807.718 1312.478,1808.339 1311.237,1809.581 1310.617,1810.821 
	1309.996,1812.683 1309.996,1814.546 1310.617,1816.409 1311.237,1817.649 1311.857,1818.271 "/>
<polyline fill="none" stroke="#000000" stroke-miterlimit="10" points="1319.927,1817.028 1314.96,1816.409 1313.72,1816.409 
	1313.099,1817.028 "/>
<polyline fill="none" stroke="#000000" stroke-miterlimit="10" points="1316.824,1830.685 1318.064,1830.063 1318.685,1828.202 
	1318.685,1826.339 1318.064,1824.478 1316.824,1823.856 1315.582,1824.478 1314.96,1825.718 1314.34,1828.821 1313.72,1830.063 
	1312.478,1830.685 1311.857,1830.685 1310.617,1830.063 1309.996,1828.202 1309.996,1826.339 1310.617,1824.478 1311.857,1823.856 
	"/>
<polyline fill="none" stroke="#000000" stroke-miterlimit="10" points="1314.96,1834.409 1314.96,1841.856 1316.203,1841.856 
	1317.444,1841.235 1318.064,1840.614 1318.685,1839.374 1318.685,1837.511 1318.064,1836.271 1316.824,1835.028 1314.96,1834.409 
	1313.72,1834.409 1311.857,1835.028 1310.617,1836.271 1309.996,1837.511 1309.996,1839.374 1310.617,1840.614 1311.857,1841.856 
	"/>
<line fill="none" stroke="#000000" stroke-miterlimit="10" x1="1323.031" y1="1846.2" x2="1309.996" y2="1846.2"/>
<polyline fill="none" stroke="#000000" stroke-miterlimit="10" points="1316.824,1846.2 1318.064,1847.442 1318.685,1848.685 
	1318.685,1850.546 1318.064,1851.788 1316.824,1853.028 1314.96,1853.649 1313.72,1853.649 1311.857,1853.028 1310.617,1851.788 
	1309.996,1850.546 1309.996,1848.685 1310.617,1847.442 1311.857,1846.2 "/>
<line fill="none" stroke="#000000" stroke-miterlimit="10" x1="1308.753" y1="1855.511" x2="1308.753" y2="1865.442"/>
<line fill="none" stroke="#000000" stroke-miterlimit="10" x1="1318.685" y1="1867.925" x2="1309.996" y2="1867.925"/>
<polyline fill="none" stroke="#000000" stroke-miterlimit="10" points="1316.203,1867.925 1318.064,1869.788 1318.685,1871.028 
	1318.685,1872.892 1318.064,1874.132 1316.203,1874.753 1309.996,1874.753 "/>
<polyline fill="none" stroke="#000000" stroke-miterlimit="10" points="1316.203,1874.753 1318.064,1876.614 1318.685,1877.856 
	1318.685,1879.718 1318.064,1880.96 1316.203,1881.581 1309.996,1881.581 "/>
<polyline fill="none" stroke="#000000" stroke-miterlimit="10" points="1314.96,1885.925 1314.96,1893.374 1316.203,1893.374 
	1317.444,1892.753 1318.064,1892.132 1318.685,1890.892 1318.685,1889.028 1318.064,1887.788 1316.824,1886.546 1314.96,1885.925 
	1313.72,1885.925 1311.857,1886.546 1310.617,1887.788 1309.996,1889.028 1309.996,1890.892 1310.617,1892.132 1311.857,1893.374 
	"/>
<polyline fill="none" stroke="#000000" stroke-miterlimit="10" points="1323.031,1897.099 1322.41,1897.718 1323.031,1898.339 
	1323.65,1897.718 1323.031,1897.099 "/>
<line fill="none" stroke="#000000" stroke-miterlimit="10" x1="1318.685" y1="1897.718" x2="1309.996" y2="1897.718"/>
<polyline fill="none" stroke="#000000" stroke-miterlimit="10" points="1314.96,1902.063 1314.96,1909.511 1316.203,1909.511 
	1317.444,1908.892 1318.064,1908.269 1318.685,1907.028 1318.685,1905.167 1318.064,1903.925 1316.824,1902.685 1314.96,1902.063 
	1313.72,1902.063 1311.857,1902.685 1310.617,1903.925 1309.996,1905.167 1309.996,1907.028 1310.617,1908.269 1311.857,1909.511 
	"/>
<line fill="none" stroke="#000000" stroke-miterlimit="10" x1="1318.685" y1="1913.856" x2="1309.996" y2="1913.856"/>
<polyline fill="none" stroke="#000000" stroke-miterlimit="10" points="1314.96,1913.856 1316.824,1914.478 1318.064,1915.718 
	1318.685,1916.96 1318.685,1918.821 "/>
<line fill="none" stroke="#000000" stroke-miterlimit="10" x1="163.951" y1="162.677" x2="154.854" y2="162.677"/>
<polyline fill="none" stroke="#000000" stroke-miterlimit="10" points="163.951,162.677 163.951,166.576 163.518,167.875 
	163.085,168.308 162.218,168.741 161.352,168.741 160.485,168.308 160.053,167.875 159.619,166.576 "/>
<polyline fill="none" stroke="#000000" stroke-miterlimit="10" points="159.619,162.677 159.619,166.576 159.186,167.875 
	158.752,168.308 157.886,168.741 156.586,168.741 155.72,168.308 155.287,167.875 154.854,166.576 154.854,162.677 "/>
<line fill="none" stroke="#000000" stroke-miterlimit="10" x1="160.918" y1="176.539" x2="154.854" y2="176.539"/>
<polyline fill="none" stroke="#000000" stroke-miterlimit="10" points="159.619,176.539 160.485,175.672 160.918,174.806 
	160.918,173.507 160.485,172.64 159.619,171.773 158.319,171.34 157.453,171.34 156.154,171.773 155.287,172.64 154.854,173.507 
	154.854,174.806 155.287,175.672 156.154,176.539 "/>
<polyline fill="none" stroke="#000000" stroke-miterlimit="10" points="159.619,184.337 160.485,183.902 160.918,182.604 
	160.918,181.305 160.485,180.004 159.619,179.571 158.752,180.004 158.319,180.87 157.886,183.036 157.453,183.902 156.586,184.337 
	156.154,184.337 155.287,183.902 154.854,182.604 154.854,181.305 155.287,180.004 156.154,179.571 "/>
<polyline fill="none" stroke="#000000" stroke-miterlimit="10" points="158.319,186.935 158.319,192.133 159.186,192.133 
	160.053,191.7 160.485,191.267 160.918,190.4 160.918,189.101 160.485,188.235 159.619,187.369 158.319,186.935 157.453,186.935 
	156.154,187.369 155.287,188.235 154.854,189.101 154.854,190.4 155.287,191.267 156.154,192.133 "/>
<line fill="none" stroke="#000000" stroke-miterlimit="10" x1="163.951" y1="199.93" x2="154.854" y2="199.93"/>
<polyline fill="none" stroke="#000000" stroke-miterlimit="10" points="159.619,199.93 160.485,199.063 160.918,198.198 
	160.918,196.898 160.485,196.031 159.619,195.166 158.319,194.732 157.453,194.732 156.154,195.166 155.287,196.031 
	154.854,196.898 154.854,198.198 155.287,199.063 156.154,199.93 "/>
<polyline fill="none" stroke="#000000" stroke-miterlimit="10" points="160.918,212.06 160.485,211.193 159.619,210.328 
	158.319,209.894 157.453,209.894 156.154,210.328 155.287,211.193 154.854,212.06 154.854,213.36 155.287,214.227 156.154,215.092 
	157.453,215.525 158.319,215.525 159.619,215.092 160.485,214.227 160.918,213.36 160.918,212.06 "/>
<line fill="none" stroke="#000000" stroke-miterlimit="10" x1="160.918" y1="218.558" x2="154.854" y2="218.558"/>
<polyline fill="none" stroke="#000000" stroke-miterlimit="10" points="159.186,218.558 160.485,219.857 160.918,220.724 
	160.918,222.023 160.485,222.89 159.186,223.323 154.854,223.323 "/>
<polyline fill="none" stroke="#000000" stroke-miterlimit="10" points="163.951,235.885 163.518,235.019 162.65,234.152 
	161.785,233.719 160.485,233.286 158.319,233.286 157.021,233.719 156.154,234.152 155.287,235.019 154.854,235.885 
	154.854,237.618 155.287,238.484 156.154,239.351 157.021,239.783 158.319,240.217 160.485,240.217 161.785,239.783 162.65,239.351 
	163.518,238.484 163.951,237.618 163.951,235.885 "/>
<line fill="none" stroke="#000000" stroke-miterlimit="10" x1="160.918" y1="243.25" x2="151.822" y2="243.25"/>
<polyline fill="none" stroke="#000000" stroke-miterlimit="10" points="159.619,243.25 160.485,244.116 160.918,244.982 
	160.918,246.282 160.485,247.148 159.619,248.014 158.319,248.448 157.453,248.448 156.154,248.014 155.287,247.148 
	154.854,246.282 154.854,244.982 155.287,244.116 156.154,243.25 "/>
<polyline fill="none" stroke="#000000" stroke-miterlimit="10" points="158.319,251.046 158.319,256.245 159.186,256.245 
	160.053,255.811 160.485,255.379 160.918,254.512 160.918,253.212 160.485,252.347 159.619,251.48 158.319,251.046 157.453,251.046 
	156.154,251.48 155.287,252.347 154.854,253.212 154.854,254.512 155.287,255.379 156.154,256.245 "/>
<line fill="none" stroke="#000000" stroke-miterlimit="10" x1="160.918" y1="259.277" x2="154.854" y2="259.277"/>
<polyline fill="none" stroke="#000000" stroke-miterlimit="10" points="159.186,259.277 160.485,260.577 160.918,261.443 
	160.918,262.742 160.485,263.609 159.186,264.042 154.854,264.042 "/>
<polyline fill="none" stroke="#000000" stroke-miterlimit="10" points="162.65,273.139 163.518,272.272 163.951,270.972 
	163.951,269.241 163.518,267.941 162.65,267.074 161.785,267.074 160.918,267.508 160.485,267.941 160.053,268.807 159.186,271.406 
	158.752,272.272 158.319,272.706 157.453,273.139 156.154,273.139 155.287,272.272 154.854,270.972 154.854,269.241 
	155.287,267.941 156.154,267.074 "/>
<polyline fill="none" stroke="#000000" stroke-miterlimit="10" points="163.951,276.604 156.586,276.604 155.287,277.038 
	154.854,277.904 154.854,278.771 "/>
<line fill="none" stroke="#000000" stroke-miterlimit="10" x1="160.918" y1="275.304" x2="160.918" y2="278.336"/>
<line fill="none" stroke="#000000" stroke-miterlimit="10" x1="160.918" y1="281.369" x2="154.854" y2="281.369"/>
<polyline fill="none" stroke="#000000" stroke-miterlimit="10" points="158.319,281.369 159.619,281.803 160.485,282.669 
	160.918,283.535 160.918,284.835 "/>
<polyline fill="none" stroke="#000000" stroke-miterlimit="10" points="158.319,286.567 158.319,291.766 159.186,291.766 
	160.053,291.332 160.485,290.9 160.918,290.033 160.918,288.733 160.485,287.868 159.619,287.001 158.319,286.567 157.453,286.567 
	156.154,287.001 155.287,287.868 154.854,288.733 154.854,290.033 155.287,290.9 156.154,291.766 "/>
<polyline fill="none" stroke="#000000" stroke-miterlimit="10" points="158.319,294.364 158.319,299.563 159.186,299.563 
	160.053,299.13 160.485,298.696 160.918,297.831 160.918,296.53 160.485,295.664 159.619,294.798 158.319,294.364 157.453,294.364 
	156.154,294.798 155.287,295.664 154.854,296.53 154.854,297.831 155.287,298.696 156.154,299.563 "/>
<polyline fill="none" stroke="#000000" stroke-miterlimit="10" points="163.951,303.029 156.586,303.029 155.287,303.461 
	154.854,304.328 154.854,305.194 "/>
<line fill="none" stroke="#000000" stroke-miterlimit="10" x1="160.918" y1="301.729" x2="160.918" y2="304.762"/>
<line fill="none" stroke="#000000" stroke-miterlimit="10" x1="163.951" y1="307.794" x2="154.854" y2="307.794"/>
<line fill="none" stroke="#000000" stroke-miterlimit="10" x1="163.951" y1="307.794" x2="154.854" y2="311.259"/>
<line fill="none" stroke="#000000" stroke-miterlimit="10" x1="163.951" y1="314.725" x2="154.854" y2="311.259"/>
<line fill="none" stroke="#000000" stroke-miterlimit="10" x1="163.951" y1="314.725" x2="154.854" y2="314.725"/>
<line fill="none" stroke="#000000" stroke-miterlimit="10" x1="160.918" y1="322.955" x2="154.854" y2="322.955"/>
<polyline fill="none" stroke="#000000" stroke-miterlimit="10" points="159.619,322.955 160.485,322.088 160.918,321.222 
	160.918,319.923 160.485,319.056 159.619,318.19 158.319,317.757 157.453,317.757 156.154,318.19 155.287,319.056 154.854,319.923 
	154.854,321.222 155.287,322.088 156.154,322.955 "/>
<line fill="none" stroke="#000000" stroke-miterlimit="10" x1="160.918" y1="326.42" x2="151.822" y2="326.42"/>
<polyline fill="none" stroke="#000000" stroke-miterlimit="10" points="159.619,326.42 160.485,327.287 160.918,328.153 
	160.918,329.452 160.485,330.319 159.619,331.185 158.319,331.619 157.453,331.619 156.154,331.185 155.287,330.319 
	154.854,329.452 154.854,328.153 155.287,327.287 156.154,326.42 "/>
<line fill="none" stroke="#000000" stroke-miterlimit="10" x1="163.951" y1="341.582" x2="154.854" y2="341.582"/>
<polyline fill="none" stroke="#000000" stroke-miterlimit="10" points="163.951,341.582 163.951,344.614 163.518,345.914 
	162.65,346.781 161.785,347.213 160.485,347.647 158.319,347.647 157.021,347.213 156.154,346.781 155.287,345.914 154.854,344.614 
	154.854,341.582 "/>
<line fill="none" stroke="#000000" stroke-miterlimit="10" x1="160.918" y1="355.443" x2="154.854" y2="355.443"/>
<polyline fill="none" stroke="#000000" stroke-miterlimit="10" points="159.619,355.443 160.485,354.577 160.918,353.711 
	160.918,352.411 160.485,351.544 159.619,350.679 158.319,350.245 157.453,350.245 156.154,350.679 155.287,351.544 
	154.854,352.411 154.854,353.711 155.287,354.577 156.154,355.443 "/>
<polyline fill="none" stroke="#000000" stroke-miterlimit="10" points="163.951,359.342 156.586,359.342 155.287,359.776 
	154.854,360.642 154.854,361.508 "/>
<line fill="none" stroke="#000000" stroke-miterlimit="10" x1="160.918" y1="358.043" x2="160.918" y2="361.075"/>
<line fill="none" stroke="#000000" stroke-miterlimit="10" x1="160.918" y1="368.873" x2="154.854" y2="368.873"/>
<polyline fill="none" stroke="#000000" stroke-miterlimit="10" points="159.619,368.873 160.485,368.006 160.918,367.14 
	160.918,365.84 160.485,364.974 159.619,364.107 158.319,363.674 157.453,363.674 156.154,364.107 155.287,364.974 154.854,365.84 
	154.854,367.14 155.287,368.006 156.154,368.873 "/>
<polyline fill="none" stroke="#000000" stroke-miterlimit="10" points="155.72,372.771 155.287,372.337 154.854,372.771 
	155.287,373.204 155.72,372.771 "/>
<polyline fill="none" stroke="#000000" stroke-miterlimit="10" points="161.785,383.601 162.218,383.601 163.085,384.034 
	163.518,384.466 163.951,385.333 163.951,387.066 163.518,387.933 163.085,388.365 162.218,388.799 161.352,388.799 
	160.485,388.365 159.186,387.5 154.854,383.167 154.854,389.232 "/>
<polyline fill="none" stroke="#000000" stroke-miterlimit="10" points="163.951,394.43 163.518,393.13 162.218,392.264 
	160.053,391.832 158.752,391.832 156.586,392.264 155.287,393.13 154.854,394.43 154.854,395.296 155.287,396.595 156.586,397.462 
	158.752,397.896 160.053,397.896 162.218,397.462 163.518,396.595 163.951,395.296 163.951,394.43 "/>
<polyline fill="none" stroke="#000000" stroke-miterlimit="10" points="162.218,401.795 162.65,402.661 163.951,403.96 
	154.854,403.96 "/>
<polyline fill="none" stroke="#000000" stroke-miterlimit="10" points="162.65,414.791 163.518,414.356 163.951,413.057 
	163.951,412.19 163.518,410.892 162.218,410.025 160.053,409.592 157.886,409.592 156.154,410.025 155.287,410.892 154.854,412.19 
	154.854,412.624 155.287,413.924 156.154,414.791 157.453,415.223 157.886,415.223 159.186,414.791 160.053,413.924 
	160.485,412.624 160.485,412.19 160.053,410.892 159.186,410.025 157.886,409.592 "/>
<line fill="none" stroke="#000000" stroke-miterlimit="10" x1="165.684" y1="425.186" x2="151.822" y2="417.388"/>
<polyline fill="none" stroke="#000000" stroke-miterlimit="10" points="163.951,429.952 163.518,428.652 162.218,427.786 
	160.053,427.353 158.752,427.353 156.586,427.786 155.287,428.652 154.854,429.952 154.854,430.818 155.287,432.117 
	156.586,432.984 158.752,433.417 160.053,433.417 162.218,432.984 163.518,432.117 163.951,430.818 163.951,429.952 "/>
<polyline fill="none" stroke="#000000" stroke-miterlimit="10" points="163.951,440.347 157.886,436.016 157.886,442.514 "/>
<line fill="none" stroke="#000000" stroke-miterlimit="10" x1="163.951" y1="440.347" x2="154.854" y2="440.347"/>
<line fill="none" stroke="#000000" stroke-miterlimit="10" x1="165.684" y1="452.043" x2="151.822" y2="444.246"/>
<polyline fill="none" stroke="#000000" stroke-miterlimit="10" points="161.785,454.644 162.218,454.644 163.085,455.076 
	163.518,455.509 163.951,456.375 163.951,458.108 163.518,458.975 163.085,459.408 162.218,459.841 161.352,459.841 
	160.485,459.408 159.186,458.542 154.854,454.209 154.854,460.274 "/>
<polyline fill="none" stroke="#000000" stroke-miterlimit="10" points="163.951,465.472 163.518,464.172 162.218,463.306 
	160.053,462.874 158.752,462.874 156.586,463.306 155.287,464.172 154.854,465.472 154.854,466.338 155.287,467.637 
	156.586,468.504 158.752,468.938 160.053,468.938 162.218,468.504 163.518,467.637 163.951,466.338 163.951,465.472 "/>
<line fill="none" stroke="#000000" stroke-miterlimit="10" x1="1242.382" y1="1688.995" x2="1225.298" y2="1693.063"/>
<line fill="none" stroke="#000000" stroke-miterlimit="10" x1="1242.382" y1="1697.13" x2="1225.298" y2="1693.063"/>
<line fill="none" stroke="#000000" stroke-miterlimit="10" x1="1242.382" y1="1697.13" x2="1225.298" y2="1701.198"/>
<line fill="none" stroke="#000000" stroke-miterlimit="10" x1="1242.382" y1="1705.265" x2="1225.298" y2="1701.198"/>
<line fill="none" stroke="#000000" stroke-miterlimit="10" x1="1236.687" y1="1719.095" x2="1225.298" y2="1719.095"/>
<polyline fill="none" stroke="#000000" stroke-miterlimit="10" points="1234.248,1719.095 1235.875,1717.468 1236.687,1715.841 
	1236.687,1713.399 1235.875,1711.772 1234.248,1710.146 1231.806,1709.333 1230.179,1709.333 1227.74,1710.146 1226.113,1711.772 
	1225.298,1713.399 1225.298,1715.841 1226.113,1717.468 1227.74,1719.095 "/>
<polyline fill="none" stroke="#000000" stroke-miterlimit="10" points="1242.382,1726.415 1228.552,1726.415 1226.113,1727.229 
	1225.298,1728.854 1225.298,1730.483 "/>
<line fill="none" stroke="#000000" stroke-miterlimit="10" x1="1236.687" y1="1723.976" x2="1236.687" y2="1729.669"/>
<polyline fill="none" stroke="#000000" stroke-miterlimit="10" points="1231.806,1734.55 1231.806,1744.312 1233.433,1744.312 
	1235.06,1743.497 1235.875,1742.685 1236.687,1741.058 1236.687,1738.616 1235.875,1736.991 1234.248,1735.362 1231.806,1734.55 
	1230.179,1734.55 1227.74,1735.362 1226.113,1736.991 1225.298,1738.616 1225.298,1741.058 1226.113,1742.685 1227.74,1744.312 "/>
<line fill="none" stroke="#000000" stroke-miterlimit="10" x1="1236.687" y1="1750.005" x2="1225.298" y2="1750.005"/>
<polyline fill="none" stroke="#000000" stroke-miterlimit="10" points="1231.806,1750.005 1234.248,1750.819 1235.875,1752.446 
	1236.687,1754.073 1236.687,1756.513 "/>
<polyline fill="none" stroke="#000000" stroke-miterlimit="10" points="1177.64,1700.384 1179.267,1698.759 1180.082,1696.315 
	1180.082,1693.063 1179.267,1690.622 1177.64,1688.995 1176.013,1688.995 1174.386,1689.81 1173.574,1690.622 1172.759,1692.249 
	1171.132,1697.13 1170.318,1698.759 1169.506,1699.571 1167.878,1700.384 1165.439,1700.384 1163.811,1698.759 1162.998,1696.315 
	1162.998,1693.063 1163.811,1690.622 1165.439,1688.995 "/>
<polyline fill="none" stroke="#000000" stroke-miterlimit="10" points="1180.082,1706.892 1166.252,1706.892 1163.811,1707.706 
	1162.998,1709.333 1162.998,1710.958 "/>
<line fill="none" stroke="#000000" stroke-miterlimit="10" x1="1174.386" y1="1704.452" x2="1174.386" y2="1710.146"/>
<line fill="none" stroke="#000000" stroke-miterlimit="10" x1="1174.386" y1="1724.788" x2="1162.998" y2="1724.788"/>
<polyline fill="none" stroke="#000000" stroke-miterlimit="10" points="1171.947,1724.788 1173.574,1723.161 1174.386,1721.534 
	1174.386,1719.095 1173.574,1717.468 1171.947,1715.841 1169.506,1715.026 1167.878,1715.026 1165.439,1715.841 1163.811,1717.468 
	1162.998,1719.095 1162.998,1721.534 1163.811,1723.161 1165.439,1724.788 "/>
<polyline fill="none" stroke="#000000" stroke-miterlimit="10" points="1180.082,1732.108 1166.252,1732.108 1163.811,1732.923 
	1162.998,1734.55 1162.998,1736.177 "/>
<line fill="none" stroke="#000000" stroke-miterlimit="10" x1="1174.386" y1="1729.669" x2="1174.386" y2="1735.362"/>
<polyline fill="none" stroke="#000000" stroke-miterlimit="10" points="1169.506,1740.243 1169.506,1750.005 1171.132,1750.005 
	1172.759,1749.192 1173.574,1748.378 1174.386,1746.751 1174.386,1744.312 1173.574,1742.685 1171.947,1741.058 1169.506,1740.243 
	1167.878,1740.243 1165.439,1741.058 1163.811,1742.685 1162.998,1744.312 1162.998,1746.751 1163.811,1748.378 1165.439,1750.005 
	"/>
<polyline fill="none" stroke="#000000" stroke-miterlimit="10" points="1174.386,1771.97 1173.574,1770.341 1171.947,1768.716 
	1169.506,1767.901 1167.878,1767.901 1165.439,1768.716 1163.811,1770.341 1162.998,1771.97 1162.998,1774.409 1163.811,1776.036 
	1165.439,1777.663 1167.878,1778.476 1169.506,1778.476 1171.947,1777.663 1173.574,1776.036 1174.386,1774.409 1174.386,1771.97 
	"/>
<polyline fill="none" stroke="#000000" stroke-miterlimit="10" points="1180.082,1789.052 1180.082,1787.425 1179.267,1785.798 
	1176.828,1784.983 1162.998,1784.983 "/>
<line fill="none" stroke="#000000" stroke-miterlimit="10" x1="1174.386" y1="1782.544" x2="1174.386" y2="1788.237"/>
<line fill="none" stroke="#000000" stroke-miterlimit="10" x1="1180.082" y1="1806.948" x2="1162.998" y2="1806.948"/>
<polyline fill="none" stroke="#000000" stroke-miterlimit="10" points="1180.082,1806.948 1180.082,1814.269 1179.267,1816.708 
	1178.454,1817.522 1176.828,1818.337 1175.2,1818.337 1173.574,1817.522 1172.759,1816.708 1171.947,1814.269 "/>
<polyline fill="none" stroke="#000000" stroke-miterlimit="10" points="1171.947,1806.948 1171.947,1814.269 1171.132,1816.708 
	1170.318,1817.522 1168.693,1818.337 1166.252,1818.337 1164.625,1817.522 1163.811,1816.708 1162.998,1814.269 1162.998,1806.948 
	"/>
<polyline fill="none" stroke="#000000" stroke-miterlimit="10" points="1169.506,1823.216 1169.506,1832.978 1171.132,1832.978 
	1172.759,1832.165 1173.574,1831.351 1174.386,1829.724 1174.386,1827.284 1173.574,1825.657 1171.947,1824.03 1169.506,1823.216 
	1167.878,1823.216 1165.439,1824.03 1163.811,1825.657 1162.998,1827.284 1162.998,1829.724 1163.811,1831.351 1165.439,1832.978 
	"/>
<line fill="none" stroke="#000000" stroke-miterlimit="10" x1="1174.386" y1="1838.673" x2="1162.998" y2="1838.673"/>
<polyline fill="none" stroke="#000000" stroke-miterlimit="10" points="1169.506,1838.673 1171.947,1839.485 1173.574,1841.112 
	1174.386,1842.739 1174.386,1845.181 "/>
<line fill="none" stroke="#000000" stroke-miterlimit="10" x1="1180.082" y1="1849.247" x2="1162.998" y2="1849.247"/>
<polyline fill="none" stroke="#000000" stroke-miterlimit="10" points="1180.082,1854.94 1179.267,1855.755 1180.082,1856.569 
	1180.894,1855.755 1180.082,1854.94 "/>
<line fill="none" stroke="#000000" stroke-miterlimit="10" x1="1174.386" y1="1855.755" x2="1162.998" y2="1855.755"/>
<line fill="none" stroke="#000000" stroke-miterlimit="10" x1="1174.386" y1="1862.263" x2="1162.998" y2="1862.263"/>
<polyline fill="none" stroke="#000000" stroke-miterlimit="10" points="1171.132,1862.263 1173.574,1864.702 1174.386,1866.329 
	1174.386,1868.771 1173.574,1870.397 1171.132,1871.212 1162.998,1871.212 "/>
<line fill="none" stroke="#000000" stroke-miterlimit="10" x1="1118.593" y1="1688.995" x2="1101.509" y2="1688.995"/>
<line fill="none" stroke="#000000" stroke-miterlimit="10" x1="1118.593" y1="1688.995" x2="1118.593" y2="1699.571"/>
<line fill="none" stroke="#000000" stroke-miterlimit="10" x1="1110.458" y1="1688.995" x2="1110.458" y2="1695.503"/>
<polyline fill="none" stroke="#000000" stroke-miterlimit="10" points="1112.898,1706.892 1112.085,1705.265 1110.458,1703.638 
	1108.018,1702.825 1106.39,1702.825 1103.951,1703.638 1102.324,1705.265 1101.509,1706.892 1101.509,1709.333 1102.324,1710.958 
	1103.951,1712.587 1106.39,1713.399 1108.018,1713.399 1110.458,1712.587 1112.085,1710.958 1112.898,1709.333 1112.898,1706.892 
	"/>
<line fill="none" stroke="#000000" stroke-miterlimit="10" x1="1112.898" y1="1719.095" x2="1101.509" y2="1719.095"/>
<polyline fill="none" stroke="#000000" stroke-miterlimit="10" points="1108.018,1719.095 1110.458,1719.907 1112.085,1721.534 
	1112.898,1723.161 1112.898,1725.601 "/>
<polyline fill="none" stroke="#000000" stroke-miterlimit="10" points="1108.018,1728.854 1108.018,1738.616 1109.645,1738.616 
	1111.271,1737.804 1112.085,1736.991 1112.898,1735.362 1112.898,1732.923 1112.085,1731.296 1110.458,1729.669 1108.018,1728.854 
	1106.39,1728.854 1103.951,1729.669 1102.324,1731.296 1101.509,1732.923 1101.509,1735.362 1102.324,1736.991 1103.951,1738.616 
	"/>
<polyline fill="none" stroke="#000000" stroke-miterlimit="10" points="1110.458,1752.446 1112.085,1751.634 1112.898,1749.192 
	1112.898,1746.751 1112.085,1744.312 1110.458,1743.497 1108.832,1744.312 1108.018,1745.938 1107.205,1750.005 1106.39,1751.634 
	1104.763,1752.446 1103.951,1752.446 1102.324,1751.634 1101.509,1749.192 1101.509,1746.751 1102.324,1744.312 1103.951,1743.497 
	"/>
<polyline fill="none" stroke="#000000" stroke-miterlimit="10" points="1118.593,1758.954 1104.763,1758.954 1102.324,1759.767 
	1101.509,1761.394 1101.509,1763.021 "/>
<line fill="none" stroke="#000000" stroke-miterlimit="10" x1="1112.898" y1="1756.513" x2="1112.898" y2="1762.208"/>
<polyline fill="none" stroke="#000000" stroke-miterlimit="10" points="1110.458,1776.036 1112.085,1775.224 1112.898,1772.782 
	1112.898,1770.341 1112.085,1767.901 1110.458,1767.087 1108.832,1767.901 1108.018,1769.528 1107.205,1773.597 1106.39,1775.224 
	1104.763,1776.036 1103.951,1776.036 1102.324,1775.224 1101.509,1772.782 1101.509,1770.341 1102.324,1767.901 1103.951,1767.087 
	"/>
<polyline fill="none" stroke="#000000" stroke-miterlimit="10" points="1111.271,1810.202 1112.085,1810.202 1112.898,1809.388 
	1112.898,1808.575 1112.085,1807.761 1110.458,1806.948 1106.39,1805.321 1103.951,1803.694 1102.324,1802.065 1101.509,1800.44 
	1101.509,1797.187 1102.324,1795.56 1103.136,1794.745 1104.763,1793.933 1106.39,1793.933 1108.018,1794.745 1108.832,1795.56 
	1112.085,1801.255 1112.898,1802.065 1114.525,1802.88 1116.152,1802.88 1117.779,1802.065 1118.593,1800.44 1117.779,1798.813 
	1116.152,1797.999 1114.525,1797.999 1112.085,1798.813 1109.645,1800.44 1103.951,1804.507 1102.324,1806.134 1101.509,1807.761 
	1101.509,1809.388 1102.324,1810.202 1103.136,1810.202 "/>
<line fill="none" stroke="#000000" stroke-miterlimit="10" x1="1118.593" y1="1828.911" x2="1101.509" y2="1828.911"/>
<polyline fill="none" stroke="#000000" stroke-miterlimit="10" points="1118.593,1828.911 1118.593,1836.233 1117.779,1838.673 
	1116.965,1839.485 1115.338,1840.3 1112.898,1840.3 1111.271,1839.485 1110.458,1838.673 1109.645,1836.233 1109.645,1828.911 "/>
<line fill="none" stroke="#000000" stroke-miterlimit="10" x1="1112.898" y1="1854.94" x2="1101.509" y2="1854.94"/>
<polyline fill="none" stroke="#000000" stroke-miterlimit="10" points="1110.458,1854.94 1112.085,1853.315 1112.898,1851.687 
	1112.898,1849.247 1112.085,1847.62 1110.458,1845.993 1108.018,1845.181 1106.39,1845.181 1103.951,1845.993 1102.324,1847.62 
	1101.509,1849.247 1101.509,1851.687 1102.324,1853.315 1103.951,1854.94 "/>
<line fill="none" stroke="#000000" stroke-miterlimit="10" x1="1112.898" y1="1861.448" x2="1101.509" y2="1861.448"/>
<polyline fill="none" stroke="#000000" stroke-miterlimit="10" points="1108.018,1861.448 1110.458,1862.263 1112.085,1863.89 
	1112.898,1865.517 1112.898,1867.958 "/>
<line fill="none" stroke="#000000" stroke-miterlimit="10" x1="1118.593" y1="1872.024" x2="1101.509" y2="1872.024"/>
<line fill="none" stroke="#000000" stroke-miterlimit="10" x1="1112.898" y1="1880.159" x2="1104.763" y2="1872.024"/>
<line fill="none" stroke="#000000" stroke-miterlimit="10" x1="1108.018" y1="1875.276" x2="1101.509" y2="1880.972"/>
<polyline fill="none" stroke="#000000" stroke-miterlimit="10" points="1110.458,1893.987 1112.085,1893.175 1112.898,1890.733 
	1112.898,1888.294 1112.085,1885.853 1110.458,1885.04 1108.832,1885.853 1108.018,1887.481 1107.205,1891.548 1106.39,1893.175 
	1104.763,1893.987 1103.951,1893.987 1102.324,1893.175 1101.509,1890.733 1101.509,1888.294 1102.324,1885.853 1103.951,1885.04 
	"/>
</svg>
